<svg xmlns="http://www.w3.org/2000/svg" xmlns:xlink="http://www.w3.org/1999/xlink" width="100" height="86"><defs><path id="a" d="M0 .245h35.276V41.04H0z"/></defs><g fill="none" fill-rule="evenodd"><path fill="#71CFEB" fill-rule="nonzero" d="M91.617 16.75H69.051v-5.68c0-5.726-4.656-10.383-10.383-10.383H41.289c-5.727 0-10.383 4.657-10.383 10.383v5.68H8.383C3.762 16.75 0 20.508 0 25.133v51.8c0 4.622 3.758 8.383 8.383 8.383h.113-.047 83.172c4.621 0 8.383-3.758 8.383-8.383l-.004-51.8c0-4.622-3.758-8.383-8.383-8.383zm-54.844-5.68a4.516 4.516 0 014.512-4.511h17.379a4.516 4.516 0 014.511 4.511v5.68H36.773v-5.68zM8.382 79.441A2.515 2.515 0 015.87 76.93v-6.938c5.16.254 9.332 4.332 9.735 9.45H8.382zm85.746-2.511a2.515 2.515 0 01-2.512 2.511H84.39c.406-5.12 4.574-9.195 9.734-9.449l.004 6.938zm0-12.81c-8.398.262-15.203 6.962-15.621 15.32H21.491c-.418-8.359-7.223-15.058-15.621-15.32V25.134a2.515 2.515 0 012.512-2.512H91.62a2.515 2.515 0 012.511 2.512l-.003 38.988z"/><path fill="#72CEE9" d="M48.67 48.386l5.714-6.205c1.01-1.097-.626-2.741-1.64-1.64l-5.715 6.204c-1.01 1.097.626 2.742 1.64 1.64m-8.009-1.551l5.942 5.879c1.062 1.05 2.703-.588 1.64-1.64l-5.94-5.879c-1.063-1.05-2.704.588-1.641 1.64m-1.12 12.874c.015 2.786.03 2.773.044 5.558.008 1.495 2.328 1.496 2.32 0-.015-2.785-.03-2.772-.044-5.558-.008-1.495-2.328-1.496-2.32 0"/><path fill="#72CEE9" d="M38.28 63.544c2.786-.015 2.264-.03 5.05-.045 1.494-.008 1.496-2.327 0-2.32-2.786.015-2.264.03-5.05.045-1.494.008-1.496 2.327 0 2.32m10.39-5.606l6.204-6.368c1.042-1.07-.596-2.712-1.64-1.64l-6.205 6.368c-1.043 1.07.596 2.711 1.64 1.64"/><g transform="translate(31 29.025)"><mask id="b" fill="#fff"><use xlink:href="#a"/></mask><path fill="#222D5F" d="M35.059 14.076C33.565 5.334 25.223.506 17.737.25a.987.987 0 00-.112-.006l-.017.29-.06-.29c-.077 0-.15.006-.208.015C10.602.508 4.816 3.834 1.863 9.157c-4.154 7.487-.5 15.022 2.611 20.039.279.45.725.698 1.238.683a1.6 1.6 0 001.328-.81c.23-.427.205-.907-.07-1.35-3.146-5.073-5.914-11.073-2.597-17.111 2.486-4.524 7.43-7.313 13.209-7.461 6.94.181 14.37 5.025 14.79 12.817.344 6.39-3.948 13.711-12.77 21.775-.216.139-.51.28-.72.193-.209-.086-.377-.402-.484-.914-.115-.546-.107-1.093-.1-1.672l.044-10.558a1.5 1.5 0 00-.043-.357V9.151c0-1.85-2.9-1.852-2.9 0v18.525l-.021.921c-.06 2.542-.121 5.17.021 7.733.073 1.296.403 3.045 1.57 4.014.559.465 1.167.696 1.815.696.771 0 1.6-.327 2.47-.977.143-.07.258-.147.363-.242 7.04-6.429 15.088-16.114 13.442-25.745" mask="url(#b)"/></g></g></svg>