<svg width="33" height="33" viewBox="0 0 33 33" xmlns="http://www.w3.org/2000/svg"><path d="M32.662 6.432c-.344-2.799-2.401-5.043-5.209-5.671a11.953 11.953 0 00-2.445-.277C22.251.45 19.492.471 16.734.471V.458c-2.346 0-4.692-.012-7.038.005C8.76.47 7.82.491 6.892.589 3.821.917 1.468 2.946.856 5.866.641 6.893.593 7.966.587 9.019.56 13.774.57 18.529.58 23.284c.002.835.038 1.673.118 2.504.288 3.016 2.402 5.359 5.398 6.019 1.083.237 2.185.254 3.286.254 4.785.002 9.57.007 14.355-.004a29.254 29.254 0 002.681-.116c3.133-.296 5.531-2.37 6.151-5.376.188-.919.237-1.879.241-2.822.024-4.826.02-9.652.006-14.477a23.926 23.926 0 00-.154-2.834m-18.907 11.52H10.51v11.547c-.107.004-.188.011-.269.011-1.456.001-2.911-.005-4.366.007-.236.002-.279-.076-.278-.286.006-3.642.004-7.283.004-10.925v-.344H3.193v-4.005h2.408v-.318c.013-.974.005-1.949.046-2.923a5 5 0 01.58-2.179C6.864 7.35 7.93 6.757 9.23 6.534a11.12 11.12 0 011.673-.143c.986-.022 1.974-.006 2.961-.006h.285v4c-.247 0-.483-.003-.719 0-.603.009-1.207.005-1.81.036-.713.036-1.059.37-1.086 1.067-.03.773-.021 1.548-.029 2.323 0 .04.012.079.022.145h3.66l-.432 3.996" fill="currentColor" fill-rule="evenodd"/></svg>