<svg width="33" height="33" viewBox="0 0 33 33" xmlns="http://www.w3.org/2000/svg"><g fill="currentColor" fill-rule="evenodd"><path d="M16.858 5.028v-.032c-1.458 0-2.914-.012-4.37.007-.542.007-1.093.037-1.623.145-3.532.728-5.926 3.669-5.947 7.309-.017 2.979-.01 5.959.003 8.939a7.6 7.6 0 00.142 1.49c.733 3.557 3.693 5.947 7.37 5.957 2.934.009 5.87.014 8.804-.007a8.366 8.366 0 001.881-.213c3.376-.818 5.627-3.738 5.64-7.288.011-2.947.012-5.894-.005-8.84a8.76 8.76 0 00-.173-1.686c-.633-3.151-3.437-5.612-6.655-5.767-1.686-.08-3.378-.014-5.067-.014zM.76 8.114c.069-.526.107-1.057.213-1.575.535-2.607 2.057-4.378 4.571-5.262C6.734.858 7.985.842 9.232.842 14.299.84 19.366.831 24.434.851c.928.003 1.869.059 2.784.209 2.709.443 4.875 2.561 5.427 5.25.126.616.182 1.247.271 1.871v17.613c-.046.34-.092.679-.136 1.018-.305 2.327-1.475 4.083-3.507 5.249-1.273.73-2.686.911-4.117.918-4.857.022-9.714.026-14.572.015-1.231-.003-2.472-.013-3.693-.149-3.05-.342-5.394-2.595-5.926-5.606-.08-.457-.138-.919-.205-1.378V8.114z"/><path d="M24.799 10.446a1.453 1.453 0 00-2.905-.045 1.46 1.46 0 001.464 1.494 1.46 1.46 0 001.441-1.449zm-7.948 12.403c3.249-.013 5.919-2.691 5.915-5.935-.004-3.26-2.705-5.944-5.959-5.921-3.254.023-5.912 2.705-5.897 5.949.016 3.252 2.699 5.919 5.941 5.907zm-.005-15.798c1.501 0 3.002-.003 4.503 0 2.998.007 5.351 2.354 5.357 5.35.005 3.013.005 6.026 0 9.039-.006 2.996-2.357 5.345-5.357 5.35-3.002.004-6.003.004-9.005 0-3.023-.004-5.37-2.349-5.374-5.366-.004-3.002-.004-6.004 0-9.006.004-3.017 2.353-5.362 5.374-5.367 1.501-.002 3.002 0 4.502 0z"/><path d="M20.705 16.923a3.855 3.855 0 01-3.878 3.866 3.854 3.854 0 01-3.856-3.887 3.854 3.854 0 013.86-3.849 3.858 3.858 0 013.874 3.87"/></g></svg>