<svg xmlns="http://www.w3.org/2000/svg" width="80" height="86"><g fill="none"><path fill="#143D6C" stroke="#143D6C" stroke-width="2" d="M61.5 76.8c-.8 2.7-3.3 4.7-6.2 4.7h-44A6.485 6.485 0 014.8 75V11c0-3.602 2.9-6.5 6.5-6.5h44c3.602 0 6.5 2.898 6.5 6.5v28c.5 0 1-.102 1.5-.102s1 0 1.5.102V11c0-5.2-4.3-9.5-9.5-9.5h-44c-5.198 0-9.5 4.3-9.5 9.5v64c0 5.2 4.302 9.5 9.5 9.5h44c4.602 0 8.5-3.3 9.302-7.602-.399 0-.899.102-1.301.102-.602-.102-1.2-.102-1.801-.2z"/><path fill="#71CFEB" d="M38.801 71.5c.8 0 1.5.7 1.5 1.5s-.7 1.5-1.5 1.5h-20c-.8 0-1.5-.7-1.5-1.5s.7-1.5 1.5-1.5h20z"/><path fill="#143D6C" d="M29.801 17.301v9h-9v7h9v9h7v-9h9v-7h-9v-9z"/><path fill="#71CFEB" d="M14.801 49.5c-.8 0-1.5.7-1.5 1.5s.7 1.5 1.5 1.5 1.5-.7 1.5-1.5-.7-1.5-1.5-1.5zm0 14.699c-.8 0-1.5.7-1.5 1.5s.7 1.5 1.5 1.5 1.5-.7 1.5-1.5-.7-1.5-1.5-1.5zm0 7.301c-.8 0-1.5.699-1.5 1.5 0 .8.7 1.5 1.5 1.5s1.5-.7 1.5-1.5c0-.801-.7-1.5-1.5-1.5zm0-14.7c-.8 0-1.5.7-1.5 1.5 0 .802.7 1.5 1.5 1.5s1.5-.698 1.5-1.5c0-.8-.7-1.5-1.5-1.5zm32.5 17.7c.8 0 1.5-.7 1.5-1.5 0-.801-.7-1.5-1.5-1.5s-1.5.699-1.5 1.5c0 .8.598 1.5 1.5 1.5zm-5.5-1.5c0 .8.7 1.5 1.5 1.5s1.5-.7 1.5-1.5c0-.801-.7-1.5-1.5-1.5s-1.5.699-1.5 1.5zm10.801.699c-.8-.5-1.602-1.2-2.3-1.8-.302.3-.602.698-.602 1.198 0 .801.699 1.5 1.5 1.5.699-.097 1.199-.398 1.402-.898zm-33.801-9.5c-.8 0-1.5.7-1.5 1.5s.7 1.5 1.5 1.5h27.898c-.5-1-1-2-1.3-3H18.8zm0-4.399h25.602c-.102-.6-.102-1.3-.102-1.898 0-.398 0-.699.102-1.101H18.801c-.8 0-1.5.699-1.5 1.5 0 .8.598 1.5 1.5 1.5zm-1.5-8.8c0 .8.7 1.5 1.5 1.5H45c.3-1 .7-2 1.2-3H18.8c-.902 0-1.5.699-1.5 1.5z"/><path fill="#57B0CC" d="M79.801 57.899c0 9.101-7.398 16.5-16.5 16.5s-16.5-7.399-16.5-16.5c0-9.102 7.398-16.5 16.5-16.5 9.098 0 16.5 7.402 16.5 16.5z"/><path fill="#FFF" d="M76.801 57.899c0-7.399-6.102-13.5-13.5-13.5s-13.5 6.101-13.5 13.5c0 7.398 6.102 13.5 13.5 13.5s13.5-6 13.5-13.5z"/><path fill="#57B0CC" d="M64.301 49.399c-.3-.301-.602-.399-.898-.399h-.301c-.399 0-.7.2-1 .399l-5 5c-.301.3-.399.699-.399 1.101 0 .399.102.801.399 1.102.601.602 1.5.602 2.101 0l2.399-2.398v11.398c0 .8.699 1.5 1.5 1.5.8 0 1.5-.7 1.5-1.5V54L67 56.398c.602.602 1.5.602 2.102 0 .601-.602.601-1.5 0-2.102L64.3 49.4z"/></g></svg>