<svg xmlns="http://www.w3.org/2000/svg" width="79" height="80"><g fill="none" stroke-width="2.5"><path fill="#143D6C" stroke="#143D6C" d="M19.969 48.2a17.038 17.038 0 01-.64 6.225 3.728 3.728 0 005.255 4.4C28.288 57 33.2 53.744 36.2 48.759h2.441a23.6 23.6 0 000-47.2H24.92A23.585 23.585 0 005.385 11.943a23.592 23.592 0 00-2.334 22A23.583 23.583 0 0019.969 48.2v.001zm4.95-42.6h13.744a19.597 19.597 0 0116.975 9.8 19.59 19.59 0 010 19.6 19.597 19.597 0 01-16.975 9.8h-3.606a2.001 2.001 0 00-1.77 1c-2.318 4.416-6.59 7.39-9.968 9.175.753-2.872.9-5.869.434-8.8a2.002 2.002 0 00-1.69-1.678A19.59 19.59 0 017.41 33.157a19.581 19.581 0 011.356-18.48A19.58 19.58 0 0124.92 5.6v0z"/><path fill="#71CFEB" stroke="#71CFEB" d="M77.463 53.44a17.806 17.806 0 01-13.6 17.222 11.81 11.81 0 00.481 3.938 3.26 3.26 0 01-1.028 3.434c-1 .835-2.403.994-3.563.406-2.697-1.368-6.256-3.703-8.537-7.296h-1.472a17.71 17.71 0 01-16.256-10.647 2.005 2.005 0 011.037-2.638 2.001 2.001 0 012.635 1.038 13.72 13.72 0 0012.584 8.256h2.625a2 2 0 011.769 1.047 15.647 15.647 0 005.975 5.862 16.312 16.312 0 01-.056-5.4 1.999 1.999 0 011.687-1.678 13.719 13.719 0 009.69-6.375A13.71 13.71 0 0064.8 40.663a1.993 1.993 0 01-.822-2.457A1.997 1.997 0 0166.272 37a17.602 17.602 0 0111.191 16.44zM21.584 24.297a2.002 2.002 0 012.729-.738c1.74 1 3.293 2.3 4.584 3.84a47.477 47.477 0 0110.222-9.6 2.004 2.004 0 012.29 3.288A43.508 43.508 0 0030.496 31.97a2.008 2.008 0 01-1.64.856h-.088a2.01 2.01 0 01-1.65-1 13.05 13.05 0 00-4.8-4.8 2.001 2.001 0 01-.734-2.728z"/></g></svg>