<svg xmlns="http://www.w3.org/2000/svg" width="65" height="87"><g fill="none"><path fill="#143D6C" d="M32.188.349v.731l-.08-.727h-.188C14.31.493 0 13.876 0 30.24c0 8.625 4.308 16.211 8.344 22.641 3.147 5.018 7.284 10.07 13.013 15.905l.446.455c2.862 2.93 6.481 6.625 10.56 6.625 1.7 0 3.46-.637 5.29-2.228 7.684-6.68 13.642-13.472 18.213-20.757 4.036-6.434 8.344-14.033 8.344-22.64C64.214 13.85 49.845.424 32.188.348zM58.554 30.24c0 7.128-3.861 13.877-7.48 19.643-4.597 7.353-10.849 14.331-18.563 20.71a1.008 1.008 0 01-.425.183.987.987 0 01-.404-.183c-7.697-6.379-13.949-13.357-18.563-20.71C9.5 44.117 5.64 37.368 5.64 30.24 5.639 16.908 17.512 6.03 32.103 6c14.595.03 26.468 10.908 26.468 24.24h-.017z"/><path fill="#71CFEB" d="M32.103 14.752c-7.762 0-14.055 6.293-14.055 14.055s6.293 14.055 14.055 14.055 14.055-6.293 14.055-14.055c-.007-7.76-6.296-14.048-14.055-14.055zm0 23.003a8.93 8.93 0 118.93-8.93 8.96 8.96 0 01-8.93 8.93zm10.019 40.659c.82.234 1.382.565 1.446 1.416 0-.255.196-.277-.08 0 .263-.272-.252.187-.06.038a4.168 4.168 0 01-.885.425c-2.598.89-5.554 1.166-8.271 1.276-3.317.149-6.885.145-10.155-.489-1.11-.212-2.493-.51-3.275-1.403a1.306 1.306 0 01-.204-.468c.042.12 0-.026 0-.026s-.14.103-.068.073c1.301-.519 2.211-1.731 1.811-3.19-.34-1.233-1.88-2.33-3.189-1.807-1.701.685-3.143 1.807-3.598 3.704a5.788 5.788 0 001.068 4.754C19 85.852 23.27 86.29 26.868 86.575c4.396.4 8.825.245 13.183-.46 2.683-.468 5.758-.927 7.54-3.215 2.934-3.768-.106-8.36-4.108-9.509-3.215-.922-4.584 4.074-1.378 4.997l.017.026z"/></g></svg>