<svg xmlns="http://www.w3.org/2000/svg" width="69" height="74"><g fill="none"><path fill="#143D6C" d="M2.22 12.47h63.683c2.852 0 2.852-4.428 0-4.428H2.22c-2.843 0-2.852 4.429 0 4.429z"/><circle cx="52.768" cy="9.548" r="7.334" fill="#FFF"/><path fill="#58B1CB" d="M62.316 9.548a2.471 2.471 0 00-.062-.647C61.696 4.012 57.932 0 52.768 0a9.672 9.672 0 00-9.557 9.548 9.637 9.637 0 009.132 9.53c5.314.222 9.3-3.835 9.884-8.857.06-.22.089-.446.089-.673zm-14.676 0c0-6.616 9.893-6.563 10.247 0-.354 6.563-10.247 6.616-10.247 0z"/><path fill="#143D6C" d="M2.22 66.916h63.683c2.852 0 2.852-4.429 0-4.429H2.22c-2.843 0-2.852 4.429 0 4.429z"/><circle cx="52.768" cy="63.993" r="7.334" fill="#FFF"/><path fill="#58B1CB" d="M62.316 63.993a2.471 2.471 0 00-.062-.647c-.558-4.889-4.322-8.857-9.486-8.857a9.54 9.54 0 00-.425 19.025c5.314.222 9.3-3.826 9.884-8.857.058-.217.088-.44.089-.664zm-14.676 0c0-6.616 9.893-6.563 10.247 0-.354 6.563-10.247 6.625-10.247 0z"/><path fill="#143D6C" d="M65.903 34.543H2.22c-2.843 0-2.852 4.428 0 4.428h63.683c2.852 0 2.852-4.428 0-4.428z"/><circle cx="15.364" cy="37.483" r="7.334" fill="#FFF"/><path fill="#58B1CB" d="M15.763 27.953c-5.314-.221-9.309 3.826-9.885 8.857a2.259 2.259 0 00-.062.665c-.012.217.009.435.062.646.558 4.89 4.314 8.902 9.486 8.902a9.541 9.541 0 10.399-19.079v.01zm-5.518 9.53c.354-6.563 10.239-6.625 10.239 0 0 6.626-9.885 6.564-10.24 0z"/><path fill="#71CFEB" d="M32.228 36.775a2.214 2.214 0 00-2.214-2.214H2.229c-2.852 0-2.86 4.428 0 4.428h27.785a2.214 2.214 0 002.214-2.214z"/><circle cx="15.364" cy="37.483" r="7.334" fill="#FFF"/><path fill="#71CFEB" d="M15.665 27.944c-5.314-.16-9.211 3.87-9.742 8.857a2.259 2.259 0 00-.062.665 2.1 2.1 0 00.062.646c.558 4.89 4.313 8.902 9.486 8.902a9.548 9.548 0 00.3-19.087l-.044.017zm-5.42 9.54c.354-6.564 10.239-6.626 10.239 0 0 6.625-9.885 6.563-10.24 0zm25.659-27.21a2.214 2.214 0 002.214 2.215h27.785c2.852 0 2.852-4.429 0-4.429H38.118a2.206 2.206 0 00-2.214 2.214z"/><circle cx="52.768" cy="9.566" r="7.334" fill="#FFF"/><path fill="#71CFEB" d="M52.467 19.096c5.314.16 9.211-3.87 9.743-8.857a2.58 2.58 0 00.062-.656c.007-.22-.014-.44-.062-.655C61.696 4.03 57.94 0 52.768 0a9.619 9.619 0 00-9.194 12.152 9.645 9.645 0 008.893 6.944zm5.42-9.53c-.354 6.563-10.247 6.616-10.247 0 0-6.617 9.893-6.563 10.247 0zM35.904 64.701c0 1.223.991 2.215 2.214 2.215h27.785c2.852 0 2.852-4.429 0-4.429H38.118a2.214 2.214 0 00-2.214 2.214z"/><circle cx="52.768" cy="63.993" r="7.334" fill="#FFF"/><path fill="#71CFEB" d="M52.467 73.514c5.314.16 9.211-3.87 9.743-8.857.049-.218.07-.441.062-.664a2.471 2.471 0 00-.062-.647c-.558-4.889-4.314-8.857-9.486-8.857a9.548 9.548 0 00-.257 19.025zm5.42-9.539c-.354 6.563-10.247 6.625-10.247 0s9.893-6.545 10.247.018v-.018z"/></g></svg>