<svg width="33" height="33" viewBox="0 0 33 33" xmlns="http://www.w3.org/2000/svg"><path d="M24.033 11.549c.6-.618 1.218-1.178 1.462-2.034-.702.245-1.339.498-1.995.679-.195.054-.498-.028-.662-.159-1.191-.949-2.511-1.265-3.949-.75-1.431.512-2.319 1.556-2.561 3.073-.078.491-.012 1.006-.012 1.552-1.63-.051-3.112-.479-4.52-1.177-1.406-.696-2.596-1.683-3.673-2.928-.955 2.077-.493 3.752 1.123 5.185l-.071.103-1.598-.392c.177 1.96 1.217 3.179 3.013 3.9l-1.568.08c.665 1.633 1.883 2.459 3.661 2.67-1.697 1.286-3.509 1.797-5.659 1.696.251.17.353.254.467.312 3.895 1.988 7.788 1.967 11.481-.371 3.449-2.182 5.062-5.508 5.187-9.562.012-.36.118-.58.388-.817.521-.457.986-.977 1.475-1.47l-.074-.08-1.915.49zm8.256 5.018l-.001 10.076c-.001 3.418-2.64 6.068-6.044 6.069H6.042C2.659 32.711.001 30.064.001 26.693V6.439C.002 3.092 2.657.425 5.992.424h20.305c3.334.001 5.99 2.669 5.991 6.017.002 3.375.001 6.751.001 10.126z" fill="currentColor" fill-rule="evenodd"/></svg>