<svg xmlns="http://www.w3.org/2000/svg" width="90" height="69"><g fill="none"><path fill="#71CFEB" d="M78.215 25.906l.078-.11 11.29 8.399-3.13 4.21-8.238-6.128-8.242 6.129-3.14-4.211 11.288-8.398z"/><path fill="#143D6C" d="M81.332 38.836v20.828c0 4.96-3.781 9-8.441 9H9.114c-4.66 0-8.438-4.04-8.438-9v-50c0-4.96 3.781-9 8.438-9h63.78c4.66 0 8.442 4.04 8.442 9v7h-6v-7c0-1.648-1.09-3-2.441-3H9.114c-1.352 0-2.438 1.352-2.438 3v50c0 1.648 1.09 3 2.438 3h3.511c2.211-9.262 7.102-17.031 13.762-21.93l1.871-1.379 1.63 1.66c3.171 3.223 7.378 4.989 11.878 4.989s8.723-1.77 11.88-4.989l1.632-1.66 1.879 1.379c6.61 4.871 11.488 12.609 13.719 21.789l.031.14h1.989c1.351 0 2.441-1.351 2.441-3l.129-20.948 5.866.121z"/><path fill="#FFF" d="M65.082 62.918l.46-.14c-1.878-6.262-5.589-12.603-9.878-16.353-3.922 3.211-8.77 4.95-13.898 4.95s-9.98-1.739-13.898-4.942c-4.43 3.899-7.867 9.64-9.68 16.191l.04.04 1.23.12 45.624.134z"/><path fill="#71CFEB" d="M58.305 25.336c0 3.328-.988 6.54-2.86 9.3a15.816 15.816 0 01-2.511 2.9c-3.027 2.82-7.02 4.378-11.211 4.378-4.18 0-8.16-1.559-11.23-4.39a16.937 16.937 0 01-2.488-2.88 16.52 16.52 0 01-2.86-9.312c0-9.14 7.438-16.57 16.578-16.57 9.14.004 16.582 7.434 16.582 16.574zm-7 6.492a11.47 11.47 0 002-6.488c0-6.379-5.188-11.57-11.578-11.57-6.383 0-11.578 5.191-11.578 11.57 0 2.328.688 4.578 1.98 6.488.52.738 1.11 1.43 1.75 2.012a11.555 11.555 0 007.852 3.078c2.918 0 5.7-1.09 7.828-3.059a11.558 11.558 0 001.746-2.03z"/></g></svg>