<svg xmlns="http://www.w3.org/2000/svg" width="111" height="74"><g fill="none"><path fill="#143D6C" d="M104.157 41.112l2.664-21.914c0-4.125-3.61-7.476-8.164-7.476H87.399c-4.468 0-8.164 3.351-8.164 7.476L81.9 41.112c-3.523.774-6.101 4.04-6.101 7.907v5.672H82.5v17.187c0 .945.773 1.719 1.719 1.719.945 0 1.718-.774 1.718-1.719V54.691H98.83v17.187c0 .945.774 1.719 1.72 1.719.944 0 1.718-.774 1.718-1.719V54.691h7.992v-5.672c0-3.867-2.578-7.047-6.102-7.907zm2.664 10.141h-27.5V49.02c0-2.578 1.976-4.64 4.383-4.64h18.734c2.406 0 4.383 2.062 4.383 4.64v2.234zM44.688 71.878c0 .946.773 1.72 1.718 1.72.946 0 1.719-.774 1.719-1.72V54.691h12.89v17.187c0 .946.774 1.72 1.72 1.72.945 0 1.718-.774 1.718-1.72V54.691h7.735v-5.672c0-3.867-2.578-7.047-6.102-7.906l2.664-21.914c0-4.125-3.61-7.477-8.164-7.477H49.415c-4.47 0-8.165 3.352-8.165 7.477l2.665 21.914c-3.524.86-6.102 4.039-6.102 7.906v5.672h6.875v17.187zM41.25 51.253V49.02c0-2.578 1.977-4.64 4.383-4.64h18.734c2.406 0 4.383 2.062 4.383 4.64v2.234h-27.5z"/><path fill="#57B0CC" d="M5.328 14.902c1.203-.86 2.75-1.805 4.899-2.922-2.063.43-3.782 1.46-4.899 2.922zm18.82-3.009c2.836 1.461 4.727 2.75 6.016 3.696-1.29-1.977-3.438-3.352-6.016-3.696z"/><path fill="#71CFEB" d="M23.547 6.566a6.275 6.275 0 01-6.274 6.273A6.275 6.275 0 0111 6.566 6.275 6.275 0 0117.273.292a6.275 6.275 0 016.274 6.274M7.133 72.05c0 .945.773 1.719 1.719 1.719.859 0 1.546-.602 1.718-1.461l-.257-.774-3.18-12.289V72.05zm8.164-.086c.171 0 .257 0 .43-.086.945-.258 1.46-1.203 1.202-2.062l-3.867-15.04-.86-3.437-.17-.86 1.632-2.32c.516-.773.344-1.804-.43-2.406-.344-.172-.687-.344-1.031-.344-.516 0-1.031.258-1.375.688L8.68 49.105c-.258.43-.43.945-.258 1.375l5.156 20.195c.258.773.945 1.289 1.719 1.289zm5.243-.859l6.015-20.109c.172-.602 0-1.203-.344-1.633l-3.008-3.437c-.343-.43-.86-.602-1.289-.602-.43 0-.773.172-1.117.43-.687.601-.773 1.719-.172 2.406l2.32 2.664-.43 1.547-.687 2.32-4.64 15.383c-.258.945.257 1.89 1.117 2.148.172.086.344.086.515.086.774 0 1.461-.516 1.72-1.203zm3.092 1.461c.258.687.86 1.117 1.633 1.117.946 0 1.719-.773 1.719-1.719V61.566L23.89 72.05c-.172.172-.258.344-.258.516zM9.883 27.793c-.086 0-.086 0 0 0-.43 2.148-.688 4.812-.86 7.906v3.008c0 .601 0 1.289.086 1.976 0 .688.086 1.29.172 1.977v.086c0 .343.086.601.086.945.688-.172 1.29-.773 1.29-1.547.515-.172.945-.258 1.46-.258 1.203 0 2.406.43 3.352 1.29.515.43.86.945 1.117 1.46h.773a3.805 3.805 0 011.032-1.289 4.971 4.971 0 013.351-1.289c.774 0 1.461.172 2.149.43.172.601.687 1.117 1.375 1.203a40.71 40.71 0 00.257-6.531v-.172c-.085-3.352-.515-6.703-.945-9.195a1.785 1.785 0 00-1.633 1.804l.774 11.516H10.656l.774-11.516c.086-.945-.602-1.804-1.547-1.804z"/><path fill="#71CFEB" d="M4.727 49.448h.343a1.677 1.677 0 001.375-1.976c-2.234-11.774.43-24.149 1.29-25.695.343-.602 2.664-2.063 5.156-3.438l3.093 2.922c.344.344.774.43 1.204.43.43 0 .859-.172 1.203-.43l3.094-2.922c2.492 1.375 4.812 2.922 5.156 3.438.945 1.719 3.867 16.671 1.375 25.523-.258.945.258 1.89 1.203 2.149.172 0 .344.085.43.085.773 0 1.46-.515 1.632-1.289 2.75-9.796-.43-26.039-1.804-28.187-1.117-1.89-5.758-4.297-7.649-5.328-.257-.086-.515-.172-.773-.172-.43 0-.86.172-1.203.43l-2.836 2.664-2.836-2.665c-.344-.343-.773-.43-1.203-.43-.258 0-.516.087-.774.173-1.89.945-6.53 3.437-7.648 5.328C3.438 22.292.688 35.44 3.008 48.074c.172.86.86 1.375 1.719 1.375z"/><path fill="#143D6C" d="M29.477 52.886l-.602 1.976h5.758v-5.414a5.192 5.192 0 01-4.898 3.524c0-.086-.086-.086-.258-.086zm-10.399-1.118l-.257-.344h-3.008l.86 3.438h1.546zM5.5 52.8c-.258.086-.602.086-.86.086-1.804 0-3.523-.945-4.382-2.492v4.383h5.758L5.5 52.8z"/></g></svg>