<?xml version="1.0" standalone="no"?>
<!DOCTYPE svg PUBLIC "-//W3C//DTD SVG 20010904//EN"
 "http://www.w3.org/TR/2001/REC-SVG-20010904/DTD/svg10.dtd">
<svg version="1.0" xmlns="http://www.w3.org/2000/svg"
 width="920.000000pt" height="920.000000pt" viewBox="0 0 920.000000 920.000000"
 preserveAspectRatio="xMidYMid meet">
<metadata>
Created by potrace 1.11, written by Peter Selinger 2001-2013
</metadata>
<g transform="translate(0.000000,920.000000) scale(0.100000,-0.100000)"
fill="#000000" stroke="none">
<path d="M4588 7995 c-2 -1 -55 -6 -118 -10 -130 -8 -185 -13 -185 -15 0 -1
-16 -3 -36 -5 -20 -1 -51 -6 -70 -10 -19 -4 -47 -9 -64 -11 -16 -2 -41 -6 -55
-9 -14 -3 -40 -8 -59 -11 -19 -3 -45 -10 -58 -15 -13 -5 -23 -6 -23 -3 0 2 -8
0 -18 -5 -17 -9 -34 -14 -102 -27 -33 -6 -266 -82 -310 -101 -19 -8 -44 -19
-55 -23 -141 -59 -365 -170 -396 -196 -8 -8 -18 -14 -22 -14 -6 0 -214 -136
-234 -154 -7 -6 -23 -19 -35 -28 -59 -44 -157 -128 -201 -170 -27 -27 -51 -48
-53 -48 -2 0 -25 -23 -51 -52 -26 -28 -57 -61 -68 -72 -40 -40 -182 -222 -215
-273 -18 -29 -37 -53 -42 -53 -4 0 -8 -4 -8 -9 0 -5 -26 -53 -58 -108 -32 -54
-69 -122 -82 -150 -13 -29 -28 -53 -33 -53 -6 0 -8 -3 -4 -6 3 -4 0 -19 -9
-35 -8 -16 -14 -30 -13 -31 1 -2 -7 -21 -18 -43 -16 -31 -50 -122 -58 -155 -1
-3 -4 -12 -8 -20 -11 -30 -36 -116 -42 -145 -9 -45 -10 -49 -16 -60 -4 -5 -5
-18 -4 -27 2 -10 0 -18 -5 -18 -4 0 -8 -6 -7 -12 1 -43 -4 -78 -12 -74 -4 3
-6 -6 -3 -19 2 -14 -1 -32 -8 -40 -9 -11 -9 -15 -1 -15 7 0 10 -4 7 -9 -9 -14
-16 -85 -21 -211 -3 -63 -5 -117 -6 -120 0 -3 0 -25 1 -50 1 -25 3 -73 4 -107
0 -35 3 -63 6 -63 3 0 5 -17 6 -38 1 -47 11 -123 23 -187 5 -27 7 -53 5 -57
-3 -5 -1 -8 3 -8 5 0 9 -8 10 -17 3 -40 13 -84 23 -103 8 -15 8 -20 -1 -20 -8
0 -8 -4 -2 -12 9 -11 14 -28 28 -88 2 -8 8 -30 14 -47 5 -18 8 -33 5 -33 -3 0
1 -10 8 -22 6 -13 13 -30 14 -38 2 -16 48 -150 63 -185 22 -49 40 -105 35
-105 -3 0 2 -7 10 -16 9 -8 14 -19 11 -24 -3 -5 -1 -11 5 -15 5 -3 10 -14 10
-24 0 -10 7 -24 15 -31 8 -6 14 -15 13 -18 -2 -10 11 -41 33 -83 10 -20 16
-39 12 -43 -3 -3 -1 -6 6 -6 7 0 9 -4 6 -10 -3 -5 -2 -10 2 -10 8 0 35 -58 32
-69 0 -2 3 -7 8 -10 8 -6 49 -89 51 -104 1 -4 8 -15 17 -23 8 -9 13 -20 10
-25 -4 -5 -2 -9 3 -9 11 0 36 -57 35 -77 0 -7 3 -10 8 -8 4 3 15 -7 23 -23 12
-23 12 -32 3 -41 -9 -10 -8 -11 5 -6 13 5 22 -4 39 -37 12 -24 30 -55 40 -69
10 -14 19 -32 21 -40 2 -8 6 -16 9 -19 3 -3 27 -36 52 -75 60 -91 64 -96 114
-123 47 -26 145 -32 182 -12 12 6 21 8 21 5 0 -4 13 3 30 15 16 12 35 18 41
14 7 -4 9 -3 6 2 -3 5 7 24 23 43 68 77 72 179 11 276 -14 22 -31 49 -37 60
-6 11 -41 71 -77 133 -36 61 -62 112 -59 112 4 0 2 4 -4 8 -18 11 -164 288
-164 310 0 5 -7 15 -15 22 -8 6 -13 15 -12 18 1 6 -28 73 -55 126 -5 10 -16
35 -23 55 -8 20 -23 61 -35 91 -27 69 -89 252 -93 277 -2 10 -8 27 -12 37 -5
10 -9 28 -9 40 -1 12 -4 26 -7 31 -6 9 -20 70 -25 105 -1 8 -5 31 -9 50 -4 19
-8 46 -10 60 -9 87 -17 145 -21 151 -2 4 0 11 6 14 8 5 7 11 -1 21 -8 10 -10
63 -6 197 4 100 9 193 11 207 3 14 8 39 10 55 3 17 7 39 9 50 7 32 19 104 19
112 -1 5 6 16 15 25 8 9 12 21 9 26 -3 5 4 36 15 68 11 33 22 64 23 69 2 6 8
23 14 38 7 16 12 33 12 38 0 5 4 9 8 9 5 0 9 6 9 13 0 40 178 358 235 421 10
11 18 26 18 33 0 8 5 11 10 8 6 -3 10 0 10 7 0 8 9 20 20 28 11 8 20 20 20 27
0 7 9 18 20 25 11 7 20 16 20 20 0 5 8 16 18 26 9 10 40 43 68 73 28 30 76 75
105 101 30 26 72 62 94 82 30 26 43 32 53 24 9 -8 11 -7 7 4 -7 18 20 42 36
32 8 -4 9 -3 5 4 -7 11 167 135 191 135 7 0 15 7 18 15 3 8 12 11 21 8 8 -3
13 -2 10 2 -5 9 225 128 259 134 11 1 26 9 33 16 8 7 18 10 23 7 5 -4 9 -1 9
5 0 6 4 9 9 5 5 -3 12 -1 16 5 4 6 11 8 16 5 5 -4 9 -1 9 4 0 6 3 10 8 9 6 -2
110 29 244 72 14 5 29 6 32 3 3 -4 6 0 6 7 0 7 3 11 6 7 3 -3 16 -2 29 3 15 6
27 4 35 -3 9 -8 11 -8 7 -1 -9 16 39 24 54 10 9 -8 10 -8 5 2 -4 6 -5 12 -3
12 3 0 40 7 83 15 44 8 106 17 139 19 33 3 60 6 60 6 0 10 294 14 380 6 76 -8
154 -17 180 -21 11 -2 28 -4 38 -4 10 -1 15 -5 12 -11 -3 -5 0 -7 8 -4 8 3 39
0 68 -6 30 -6 62 -11 72 -11 9 0 17 -5 17 -10 0 -6 4 -8 9 -5 4 3 23 1 42 -5
19 -6 45 -12 59 -15 13 -3 31 -11 39 -17 12 -10 13 -9 7 1 -6 10 -4 11 10 4
24 -12 112 -43 142 -49 12 -3 22 -8 22 -12 0 -4 9 -7 21 -8 27 -2 79 -26 79
-36 0 -5 4 -5 10 -2 5 3 20 0 32 -7 13 -6 28 -13 33 -14 25 -5 64 -32 57 -39
-4 -5 -1 -5 6 -1 7 4 49 -12 100 -40 48 -26 99 -53 115 -61 15 -8 27 -19 27
-25 0 -6 3 -8 6 -5 7 7 63 -29 76 -48 4 -5 8 -6 8 -2 0 4 6 3 13 -3 6 -6 37
-28 67 -49 30 -21 54 -43 53 -49 -2 -6 3 -9 10 -7 12 5 27 -6 121 -87 108 -95
279 -276 319 -339 11 -16 23 -29 28 -29 5 0 8 -3 7 -7 -2 -5 9 -24 25 -44 15
-20 27 -41 27 -46 0 -6 7 -14 16 -17 9 -4 14 -9 11 -12 -3 -4 3 -15 14 -27 10
-11 19 -27 19 -34 0 -7 5 -13 11 -13 5 0 8 -4 4 -9 -3 -5 1 -15 8 -23 25 -26
79 -146 72 -159 -5 -7 -4 -10 2 -6 11 7 36 -40 28 -53 -3 -5 0 -10 5 -12 6 -2
12 -10 14 -18 2 -8 6 -22 9 -30 17 -38 55 -160 51 -160 -3 0 0 -9 6 -20 6 -11
11 -36 12 -55 1 -19 4 -35 8 -35 4 0 7 -6 8 -12 0 -14 11 -86 18 -128 18 -110
25 -430 11 -525 -3 -22 -9 -62 -12 -90 -3 -27 -7 -61 -10 -75 -3 -14 -8 -38
-10 -55 -3 -16 -8 -37 -10 -45 -2 -8 -6 -27 -9 -41 -4 -24 -32 -134 -43 -169
-2 -8 -4 -16 -4 -18 1 -1 -5 -18 -13 -37 -8 -19 -13 -35 -11 -35 5 0 -21 -75
-36 -103 -5 -10 -7 -22 -4 -27 3 -4 0 -10 -5 -12 -6 -2 -12 -10 -14 -18 -9
-46 -19 -69 -29 -63 -6 3 -7 1 -3 -5 3 -6 -2 -30 -13 -54 -38 -82 -54 -123
-53 -130 1 -5 -3 -8 -8 -8 -6 0 -10 -5 -10 -11 0 -32 -190 -377 -285 -516 -14
-21 -25 -43 -25 -50 0 -7 -5 -13 -10 -13 -6 0 -15 -11 -20 -25 -5 -14 -13 -25
-17 -25 -5 0 -14 -13 -21 -28 -6 -16 -21 -38 -32 -50 -11 -12 -20 -24 -20 -27
0 -6 -72 -106 -94 -132 -30 -34 -36 -43 -36 -50 0 -4 -12 -21 -28 -38 -15 -16
-47 -56 -71 -89 -24 -32 -51 -66 -60 -76 -9 -9 -30 -34 -48 -56 -17 -21 -39
-49 -50 -60 -10 -12 -36 -43 -58 -70 -22 -26 -60 -70 -85 -98 -25 -27 -55 -61
-68 -75 -159 -178 -488 -512 -496 -503 -3 3 -6 -2 -6 -11 0 -9 -3 -17 -7 -17
-5 0 -51 -41 -103 -91 -160 -152 -174 -165 -200 -180 -14 -8 -41 -16 -61 -18
-32 -2 -41 3 -62 31 -29 38 -57 124 -53 162 2 14 -1 26 -6 26 -5 0 -8 291 -6
679 1 475 5 678 12 673 6 -3 5 1 -1 10 -11 12 -8 21 18 51 17 20 35 34 40 31
5 -3 8 -1 7 3 -4 12 58 83 72 83 5 0 10 4 10 9 0 5 80 90 178 190 477 487 599
615 619 649 64 104 -21 261 -150 278 -92 13 -91 14 -461 -365 -49 -50 -93 -91
-97 -91 -5 0 -9 -4 -9 -9 0 -14 -138 -151 -152 -151 -6 0 -9 -3 -5 -6 7 -7
-41 -62 -65 -75 -15 -8 -16 28 -18 504 l-1 513 23 21 c13 11 43 43 68 71 24
28 48 48 52 46 5 -3 7 -2 6 3 -5 14 94 123 105 116 6 -3 7 -2 4 3 -7 11 102
130 116 126 4 -1 6 2 3 7 -4 5 4 17 16 25 12 9 19 16 15 16 -3 0 25 32 63 70
39 39 70 72 70 75 0 2 10 15 23 28 12 13 69 75 127 137 58 63 120 130 138 149
82 85 88 182 16 276 -47 62 -143 91 -206 61 -39 -19 -66 -44 -168 -156 -41
-45 -97 -106 -125 -135 -27 -29 -81 -88 -120 -130 -38 -42 -105 -113 -147
-158 l-77 -82 -1 521 c0 450 -2 527 -16 567 -9 26 -20 47 -25 47 -5 0 -9 6 -9
13 0 16 -65 60 -109 75 -130 45 -289 -34 -319 -158 -2 -8 -4 -437 -5 -953 l-1
-938 -66 65 c-300 298 -610 602 -635 621 -40 31 -92 43 -135 33 -19 -5 -41
-10 -47 -11 -7 -2 -30 -18 -52 -36 -42 -36 -71 -92 -71 -140 0 -75 9 -87 192
-271 99 -99 185 -180 191 -180 6 0 8 -2 5 -5 -6 -6 36 -51 79 -84 14 -12 23
-21 21 -21 -5 0 55 -60 129 -130 18 -16 29 -30 25 -30 -4 -1 6 -8 21 -16 15
-8 25 -19 22 -24 -4 -6 -2 -10 2 -10 14 0 72 -57 66 -64 -4 -3 1 -6 10 -6 10
0 17 -7 17 -15 0 -8 6 -14 13 -12 6 1 11 -4 10 -10 -2 -7 1 -13 6 -13 5 0 51
-42 104 -92 l94 -93 -3 -490 c-4 -598 -11 -1156 -14 -1170 -1 -5 -1 -12 0 -15
1 -3 4 -77 6 -165 7 -286 12 -360 34 -477 6 -28 8 -53 5 -56 -3 -3 0 -11 5
-17 6 -7 12 -27 13 -44 1 -17 5 -31 8 -31 7 0 22 -40 20 -53 -1 -4 8 -24 19
-44 10 -20 16 -41 13 -47 -3 -6 -3 -8 2 -4 4 4 13 -2 20 -15 6 -12 18 -33 26
-47 20 -35 136 -150 143 -143 3 4 6 1 6 -5 0 -7 7 -12 15 -12 8 0 15 -3 15 -8
0 -11 115 -55 144 -55 14 0 26 -3 26 -6 0 -6 48 -6 158 2 12 0 22 5 22 9 0 4
8 8 19 8 22 0 125 41 129 52 2 4 9 8 16 8 7 0 34 16 61 34 27 19 52 33 56 31
4 -3 9 2 13 10 3 8 11 15 17 15 7 0 27 16 45 35 19 18 34 32 34 30 0 -4 81 73
212 200 42 41 82 75 89 75 7 0 10 2 7 6 -3 3 51 63 121 133 129 131 293 306
353 374 18 22 48 55 66 74 17 20 32 40 32 45 0 5 5 6 10 3 6 -3 10 -2 10 4 0
5 10 21 23 35 12 13 36 41 52 61 17 21 37 45 45 55 8 10 23 30 34 44 10 14 23
23 29 19 5 -3 7 -1 4 4 -4 6 5 23 18 37 14 15 25 29 25 32 0 6 15 25 48 59 12
13 22 29 22 35 0 5 5 10 10 10 6 0 10 7 10 16 0 8 5 12 10 9 6 -3 10 0 10 7 0
12 24 46 64 91 9 9 16 22 16 27 0 6 5 10 12 10 6 0 9 3 6 6 -4 3 1 14 10 24
29 31 42 49 42 55 0 5 69 105 80 115 3 3 11 17 19 33 8 15 18 27 23 27 4 0 8
4 8 9 0 12 61 105 72 109 5 2 6 7 3 12 -3 5 1 15 9 22 7 8 17 24 20 36 4 12
12 22 17 22 5 0 9 7 9 15 0 8 8 23 18 33 9 10 18 25 20 33 2 8 8 16 13 17 5 2
9 12 9 23 0 10 5 19 10 19 6 0 10 5 10 11 0 6 9 24 21 40 11 16 17 29 13 29
-4 0 0 8 8 18 8 9 30 49 48 87 19 39 36 72 39 75 3 3 7 10 8 17 1 6 18 44 37
85 18 40 37 83 40 96 4 12 12 22 17 22 6 0 8 4 5 8 -2 4 8 37 23 72 15 36 28
67 28 70 4 14 16 47 23 65 15 36 53 160 53 173 0 6 3 12 6 12 4 0 8 12 9 28 1
15 7 29 12 30 6 2 8 7 6 11 -3 4 4 41 14 82 20 80 29 119 35 159 2 14 6 36 9
50 9 39 21 123 32 225 14 124 6 558 -11 615 -5 17 -16 84 -20 120 -2 14 -4 27
-6 30 -1 3 -3 10 -4 15 -2 6 -4 12 -5 15 -1 3 -3 14 -5 25 -6 37 -16 80 -22
100 -4 11 -8 22 -8 25 -1 3 -8 25 -15 50 -7 25 -14 48 -16 53 -1 4 -3 9 -4 12
-1 3 -4 10 -5 15 -1 6 -4 12 -5 15 -1 3 -3 8 -5 13 -2 8 -10 29 -38 102 -12
30 -21 58 -19 63 1 4 -2 7 -7 7 -5 0 -12 10 -16 23 -4 12 -8 24 -9 27 -18 48
-115 223 -168 302 -21 31 -38 61 -38 67 0 5 -3 11 -7 13 -5 2 -28 30 -53 63
-55 74 -68 90 -153 189 -101 116 -266 266 -417 378 -95 70 -287 196 -311 203
-11 4 -19 11 -19 16 0 5 -7 9 -15 9 -9 0 -34 11 -56 25 -44 28 -90 49 -101 47
-5 -1 -8 3 -8 8 0 6 -4 10 -10 10 -5 0 -42 15 -82 34 -130 60 -446 173 -508
181 -14 2 -59 13 -100 23 -41 11 -104 25 -140 31 -36 6 -78 13 -95 16 -16 3
-48 8 -70 11 -22 2 -53 7 -70 9 -28 4 -112 11 -227 19 -39 3 -48 0 -48 -13 0
-13 -2 -14 -9 -2 -9 13 -35 23 -43 16z"/>
<path d="M2350 5999 c0 -5 5 -7 10 -4 6 3 10 8 10 11 0 2 -4 4 -10 4 -5 0 -10
-5 -10 -11z"/>
<path d="M2430 5966 c0 -2 7 -7 16 -10 8 -3 12 -2 9 4 -6 10 -25 14 -25 6z"/>
<path d="M4790 5656 c0 -2 8 -10 18 -17 15 -13 16 -12 3 4 -13 16 -21 21 -21
13z"/>
<path d="M3825 4280 c-3 -6 1 -7 9 -4 18 7 21 14 7 14 -6 0 -13 -4 -16 -10z"/>
<path d="M1996 3922 c-3 -5 1 -9 9 -9 8 0 12 4 9 9 -3 4 -7 8 -9 8 -2 0 -6 -4
-9 -8z"/>
<path d="M3229 3119 c-51 -25 -87 -71 -94 -122 -8 -56 -11 -217 -5 -217 3 0 4
-17 2 -38 l-4 -38 -114 0 c-119 -1 -199 -17 -208 -40 -3 -8 -13 -14 -21 -14
-9 0 -13 -4 -10 -10 3 -5 2 -10 -2 -10 -13 0 -36 -70 -38 -115 -2 -49 11 -90
41 -131 13 -17 20 -35 16 -39 -4 -5 -2 -5 4 -2 6 4 26 0 43 -9 36 -18 157 -25
185 -11 11 5 16 5 13 0 -4 -6 16 -9 46 -7 l52 2 -1 -151 c0 -84 4 -169 9 -191
11 -40 67 -106 92 -106 8 0 15 -4 15 -8 0 -5 6 -9 13 -9 6 -1 33 -3 59 -6 34
-3 58 2 92 18 25 12 49 19 52 16 4 -3 4 0 0 7 -4 6 -3 12 1 12 19 0 55 81 55
123 -1 11 4 15 11 10 9 -5 9 -3 0 8 -6 8 -10 31 -9 52 1 20 -2 37 -7 37 -4 0
-5 6 0 13 10 16 11 67 1 67 -4 0 -3 11 2 25 7 18 6 25 -2 25 -9 0 -9 3 0 12 7
7 8 17 1 30 -5 10 -6 18 -2 19 41 5 156 2 160 -4 2 -4 9 -4 15 -1 6 4 35 8 65
10 29 1 69 9 87 18 88 41 128 170 81 261 -44 87 -85 104 -261 104 -75 0 -139
2 -142 6 -3 3 -7 70 -8 150 -2 164 -10 189 -81 239 -52 36 -146 43 -204 15z"/>
<path d="M4355 1480 c3 -5 8 -10 11 -10 2 0 4 5 4 10 0 6 -5 10 -11 10 -5 0
-7 -4 -4 -10z"/>
<path d="M4835 1009 c-4 -6 -5 -12 -2 -15 2 -3 7 2 10 11 7 17 1 20 -8 4z"/>
</g>
</svg>
