<svg xmlns="http://www.w3.org/2000/svg" width="44" height="45" viewBox="0 0 44 45">
    <g fill="none" fill-rule="nonzero">
        <path fill="#143D6C" d="M43.406 32.418L21.13 42.02c-.8.347-1.91.535-3.133.535-1.148 0-2.292-.168-3.217-.474l-13.57-4.48a4.867 4.867 0 0 1-1.207-.576l.006 1.306c-.08.466.446.964 1.52 1.318l13.568 4.48c1.74.575 4.257.562 5.626-.027L43 34.5c.622-.27.901-.612.853-.96l.004-1.39c-.146.092-.261.187-.45.268z"/>
        <path fill="#143D6C" d="M42.327 29.369l-13.568-4.481a8.289 8.289 0 0 0-1.444-.322l-.348 1.407c.069.016.152.01.215.03l12.427 4.103c.636.21.746.557.247.772L21.23 38.907c-.502.216-1.421.22-2.06.01L6.744 34.814c-.638-.21-.747-.557-.245-.772l13.447-5.795-.438-1.766L.86 34.521c-1.367.589-1.067 1.532.672 2.107l13.568 4.48c1.74.573 4.256.56 5.625-.029L43 31.475c1.37-.59 1.068-1.531-.672-2.106zm-30.43 9.01c-.601.258-1.707.264-2.472.011-.766-.25-.9-.666-.298-.925.602-.26 1.71-.265 2.473-.012.767.249.899.666.297.925z"/>
        <path fill="#71CFEB" d="M33.396 5.51A5.519 5.519 0 0 0 27.884 0h-9.418a5.518 5.518 0 0 0-5.512 5.51v9.35a5.518 5.518 0 0 0 5.512 5.51h2.003l2.703 10.953 2.707-10.954h2.003a5.519 5.519 0 0 0 5.512-5.51l.002-9.349zm-2.622 9.35c0 .702-.261 1.336-.678 1.836a7.072 7.072 0 0 0-4.314-5.21 4.072 4.072 0 0 0-2.608-7.195 4.069 4.069 0 0 0-2.604 7.195 7.063 7.063 0 0 0-4.313 5.21 2.859 2.859 0 0 1-.679-1.837V5.51a2.893 2.893 0 0 1 2.89-2.89h9.418a2.893 2.893 0 0 1 2.89 2.89v9.35h-.002z"/>
    </g>
</svg>
