<svg xmlns="http://www.w3.org/2000/svg" width="34" height="37" viewBox="0 0 34 37">
    <g fill="none" fill-rule="nonzero">
        <path fill="#143D6C" d="M1.11 6.235h31.842c1.426 0 1.426-2.214 0-2.214H1.11c-1.421 0-1.426 2.214 0 2.214z"/>
        <circle cx="26.384" cy="4.774" r="3.667" fill="#FFF"/>
        <path fill="#58B1CB" d="M31.158 4.774a1.236 1.236 0 0 0-.031-.323C30.848 2.006 28.966 0 26.384 0a4.836 4.836 0 0 0-4.778 4.774 4.818 4.818 0 0 0 4.565 4.765c2.658.11 4.65-1.917 4.943-4.428.03-.11.044-.223.044-.337zm-7.338 0c0-3.308 4.947-3.282 5.124 0-.177 3.282-5.124 3.308-5.124 0z"/>
        <path fill="#143D6C" d="M1.11 33.458h31.842c1.426 0 1.426-2.214 0-2.214H1.11c-1.421 0-1.426 2.214 0 2.214z"/>
        <circle cx="26.384" cy="31.996" r="3.667" fill="#FFF"/>
        <path fill="#58B1CB" d="M31.158 31.996a1.236 1.236 0 0 0-.031-.323c-.279-2.444-2.161-4.428-4.743-4.428a4.77 4.77 0 0 0-.213 9.512c2.658.11 4.65-1.913 4.943-4.428.029-.109.044-.22.044-.333zm-7.338 0c0-3.308 4.947-3.281 5.124 0-.177 3.282-5.124 3.313-5.124 0z"/>
        <path fill="#143D6C" d="M32.952 17.271H1.11c-1.421 0-1.426 2.215 0 2.215h31.842c1.426 0 1.426-2.215 0-2.215z"/>
        <circle cx="7.682" cy="18.742" r="3.667" fill="#FFF"/>
        <path fill="#58B1CB" d="M7.881 13.977c-2.657-.111-4.654 1.913-4.942 4.428a1.13 1.13 0 0 0-.03.332c-.007.109.003.218.03.324.28 2.444 2.157 4.45 4.743 4.45a4.77 4.77 0 1 0 .2-9.539v.005zm-2.759 4.765c.178-3.282 5.12-3.313 5.12 0 0 3.312-4.942 3.281-5.12 0z"/>
        <path fill="#71CFEB" d="M16.114 18.387c0-.611-.496-1.107-1.107-1.107H1.115c-1.426 0-1.43 2.215 0 2.215h13.892c.611 0 1.107-.496 1.107-1.108z"/>
        <circle cx="7.682" cy="18.742" r="3.667" fill="#FFF"/>
        <path fill="#71CFEB" d="M7.833 13.972c-2.657-.08-4.606 1.935-4.872 4.429a1.13 1.13 0 0 0-.03.332c-.007.109.004.218.03.323.28 2.445 2.157 4.45 4.743 4.45a4.774 4.774 0 0 0 .15-9.543l-.021.01zm-2.71 4.77c.177-3.282 5.119-3.313 5.119 0 0 3.312-4.942 3.281-5.12 0zM17.952 5.137a1.107 1.107 0 0 0 1.107 1.107h13.893c1.426 0 1.426-2.214 0-2.214H19.059a1.103 1.103 0 0 0-1.107 1.107z"/>
        <circle cx="26.384" cy="4.783" r="3.667" fill="#FFF"/>
        <path fill="#71CFEB" d="M26.233 9.548c2.658.08 4.606-1.935 4.872-4.429.024-.107.035-.217.03-.327.005-.11-.006-.22-.03-.328C30.848 2.015 28.97 0 26.384 0a4.81 4.81 0 0 0-4.597 6.076 4.823 4.823 0 0 0 4.446 3.472zm2.71-4.765c-.176 3.281-5.123 3.308-5.123 0s4.947-3.282 5.124 0zM17.952 32.35c0 .612.496 1.108 1.107 1.108h13.893c1.426 0 1.426-2.214 0-2.214H19.059c-.611 0-1.107.495-1.107 1.107z"/>
        <circle cx="26.384" cy="31.996" r="3.667" fill="#FFF"/>
        <path fill="#71CFEB" d="M26.233 36.757c2.658.08 4.606-1.935 4.872-4.428.024-.11.035-.221.03-.333a1.236 1.236 0 0 0-.03-.323c-.28-2.444-2.157-4.428-4.743-4.428a4.774 4.774 0 0 0-.129 9.512zm2.71-4.77c-.176 3.282-5.123 3.313-5.123 0 0-3.312 4.947-3.272 5.124.01v-.01z"/>
    </g>
</svg>
