<svg xmlns="http://www.w3.org/2000/svg" width="82" height="86" viewBox="0 0 82 86">
    <g fill="none" fill-rule="nonzero">
        <path fill="#143D6C" d="M36.323 21.15l-11.049-3.42a2.914 2.914 0 0 0-1.16-.122c-.187.023-.37.061-.549.123L2.077 24.388A2.921 2.921 0 0 0 0 27.193v20.702a2.928 2.928 0 0 0 2.93 2.972 2.928 2.928 0 0 0 2.93-2.972V29.333L21.49 24.51v49.738L5.861 79.1V57.667a2.943 2.943 0 0 0-.843-2.103 2.93 2.93 0 0 0-2.087-.87 2.93 2.93 0 0 0-2.087.87 2.943 2.943 0 0 0-.843 2.103V83.07c.008.923.45 1.79 1.198 2.335.744.55 1.702.713 2.587.442l20.634-6.379 20.633 6.38a2.9 2.9 0 0 0 1.71 0l21.488-6.659a2.925 2.925 0 0 0 2.076-2.777V44.32a92.03 92.03 0 0 0 2.289-2.87c3.999-5.268 7.368-11.072 7.478-17.493v-.061c0-12.095-9.882-21.923-21.977-21.923-11.16-.001-20.428 8.381-21.794 19.175zm21.793-8.433c-6.17 0-11.232 5.067-11.232 11.236 0 6.17 5.063 11.237 11.232 11.237 6.17 0 11.233-5.067 11.233-11.237s-5.063-11.236-11.233-11.236zM27.35 24.499l9.157 2.808c.904 4.788 3.449 9.203 6.47 13.312v38.44L27.35 74.236V24.5zm21.488 23.266c2.507 2.827 4.998 5.479 7.051 7.879v.004a2.93 2.93 0 0 0 4.426 0c1.248-1.458 2.678-3.018 4.151-4.64v23.236l-15.628 4.823V47.765z"/>
        <path fill="#FFF" stroke="#71CFEB" stroke-width="7" d="M77.733 23.855v.007l-.001.1c-.1 4.938-2.578 10.234-7 16.061-1.819 2.395-3.802 4.736-6.678 7.957-.606.68-2.835 3.158-3.327 3.709l-2.611 2.921-2.61-2.922c-.671-.752-3.06-3.401-3.443-3.828-2.88-3.211-4.812-5.485-6.595-7.84-4.4-5.804-6.867-11.108-6.968-16.124v-.037c.019-10.835 8.762-19.522 19.615-19.522 10.853-.005 19.599 8.687 19.618 19.518z"/>
        <path fill="#FFF" stroke="#71CFEB" stroke-width="6" d="M58.116 15.577a8.327 8.327 0 0 1 8.372 8.372 8.327 8.327 0 0 1-8.372 8.373 8.327 8.327 0 0 1-8.372-8.373 8.327 8.327 0 0 1 8.372-8.372z"/>
    </g>
</svg>
