<svg xmlns="http://www.w3.org/2000/svg" width="211" height="64" viewBox="0 0 211 64">
    <g fill="none" fill-rule="evenodd">
        <rect width="210.87" height="63.36" fill="#143D6C" rx="9.9"/>
        <text fill="#FFF" font-family="Helvetica" font-size="14.85" letter-spacing="1.188">
            <tspan x="67.32" y="21.92">Download on th</tspan> <tspan x="187.148" y="21.92">e</tspan>
        </text>
        <text fill="#FFF" font-family="SFUIDisplay-Medium, SF UI Display" font-size="28.71" font-weight="400">
            <tspan x="67.32" y="49.77">App Store</tspan>
        </text>
        <path fill="#FFF" fill-rule="nonzero" d="M47.678 47.228c-1.738 2.529-3.535 5.042-6.372 5.095-2.792.053-3.687-1.647-6.873-1.647-3.19 0-4.188 1.594-6.824 1.7-2.739.102-4.822-2.732-6.573-5.25-3.579-5.148-6.31-14.556-2.637-20.905 1.82-3.153 5.079-5.148 8.61-5.2 2.69-.05 5.231 1.805 6.874 1.805 1.646 0 4.73-2.227 7.972-1.9 1.358.056 5.167.544 7.613 4.108-.193.127-4.547 2.648-4.494 7.902.054 6.275 5.524 8.361 5.587 8.39-.05.147-.874 2.977-2.883 5.902zM35.765 14.032c1.502-1.751 4.04-3.055 6.133-3.142.268 2.433-.716 4.87-2.168 6.626-1.455 1.753-3.837 3.118-6.175 2.936-.318-2.38.86-4.864 2.21-6.42z"/>
    </g>
</svg>
