<svg xmlns="http://www.w3.org/2000/svg" xmlns:xlink="http://www.w3.org/1999/xlink" width="1182" height="2105" viewBox="0 0 1182 2105">
    <defs>
        <path id="a" d="M1037.548 144.942c.002 4.242 3.335 7.691 7.427 7.686 4.123-.004 7.456-3.449 7.45-7.697-.005-4.217-3.346-7.674-7.414-7.672-4.13.002-7.466 3.436-7.463 7.683zm16.296 35.812v-.324c0-4.005.003-8.01-.005-12.015-.001-.608-.008-1.224-.099-1.822-1-6.63-8.238-9.943-13.642-6.224-2.591 1.784-3.931 4.347-3.963 7.566-.041 4.158-.01 8.316-.01 12.473 0 .114.01.228.016.346h17.703zM1032.009 185v-.436c0-5.594-.026-11.189.01-16.783.021-3.581 1.327-6.646 3.727-9.218a12.675 12.675 0 0 1 3.736-2.743c.086-.042.172-.083.256-.127.018-.009.031-.028.06-.055-2.82-1.543-4.79-3.844-5.795-6.977-.791-2.472-.777-4.966 0-7.443 1.548-4.939 6.062-8.271 11.106-8.217 5.066.054 9.46 3.474 10.95 8.523 1.54 5.213-.646 11.445-5.893 14.131.142.074.272.138.399.206 4.74 2.55 7.294 6.58 7.387 12.109.094 5.57.02 11.145.02 16.718 0 .095-.008.192-.014.312h-25.949z"/>
    </defs>
    <g fill="none" fill-rule="evenodd">
        <g stroke="#F3F9FE" stroke-linecap="round" stroke-width="100">
            <path d="M337.997 234.302c237.446 28.27 427.222 125.013 569.327 290.23 213.158 247.828 223.556 551.6 223.556 551.6M372.465 2015.09c235.752-51.853 421.04-167.288 555.867-346.308 202.239-268.529 199.78-572.697 199.78-572.697"/>
        </g>
        <g opacity=".485" transform="translate(696 1536)">
            <path stroke="#BBE4F2" stroke-linecap="round" stroke-linejoin="round" stroke-width="4" d="M22.455 8.636H38V38H0V8.636h15.545"/>
            <path stroke="#BBE4F2" stroke-linecap="round" stroke-linejoin="round" stroke-width="4" d="M22.455 12.09h-6.91V3.456A3.454 3.454 0 0 1 19 0a3.454 3.454 0 0 1 3.455 3.455v8.636z"/>
            <path stroke="#71CFEB" stroke-linecap="round" stroke-linejoin="round" stroke-width="4" d="M24.182 20.727h6.909M24.182 27.636h6.909"/>
            <path fill="#71CFEB" fill-rule="nonzero" d="M5.182 31.09a5.181 5.181 0 0 1 5.182-5.18h3.454A5.181 5.181 0 0 1 19 31.09H5.182z"/>
            <circle cx="12.091" cy="20.727" r="3.455" fill="#71CFEB" fill-rule="nonzero"/>
        </g>
        <g stroke-linecap="round" stroke-linejoin="round" stroke-width="4.4" opacity=".42" transform="translate(1091 2047)">
            <path stroke="#71CFEB" d="M22 24.2V33c0 3.645 5.91 6.6 13.2 6.6 7.29 0 13.2-2.955 13.2-6.6v-8.8"/>
            <path stroke="#71CFEB" d="M22 33v8.8c0 3.645 5.91 6.6 13.2 6.6 7.29 0 13.2-2.955 13.2-6.6V33"/>
            <ellipse cx="35.2" cy="24.2" stroke="#71CFEB" rx="13.2" ry="6.6"/>
            <path stroke="#BBE4F2" d="M15.4 8.8v6.6H8.8"/>
            <path stroke="#BBE4F2" d="M15.4 30.8C6.895 30.8 0 23.905 0 15.4S6.895 0 15.4 0c6.976 0 12.87 4.64 14.762 11.002"/>
        </g>
        <g stroke="#71CFEB" stroke-linecap="round" stroke-linejoin="round" stroke-width="2.2" opacity=".42">
            <path d="M658.891 2094.338l8.125-1.432M680.557 2090.518l2.708-.477M689.48 2077.775l-40.624 7.163M690.114 2097.21l-35.207 6.208a2.751 2.751 0 0 1-3.186-2.23l-4.297-24.375a2.751 2.751 0 0 1 2.23-3.185l35.207-6.208a2.751 2.751 0 0 1 3.186 2.23l4.298 24.374a2.751 2.751 0 0 1-2.231 3.186z"/>
        </g>
        <g opacity=".384" transform="rotate(-24 2928.12 455.224)">
            <rect width="48.98" height="50" rx="2"/>
            <g transform="translate(2.083 3.125)">
                <path stroke="#71CFEB" stroke-linecap="round" stroke-linejoin="round" stroke-width="2" d="M28.611 13.511h-3.179M19.074 13.511h-3.179M9.537 13.511H6.358M28.611 37.353h-3.179M38.148 13.511h-3.179M38.148 37.353h-3.179M19.074 37.353h-3.179M9.537 37.353H6.358"/>
                <circle cx="36.559" cy="25.432" r="1.59" fill="#71CFEB" fill-rule="nonzero"/>
                <path stroke="#57B0CC" stroke-linecap="round" stroke-linejoin="round" stroke-width="2" d="M3.974 7.948a3.974 3.974 0 0 1 0-7.948h31.79v3.179"/>
                <path stroke="#57B0CC" stroke-linecap="round" stroke-linejoin="round" stroke-width="2" d="M44.506 20.664V7.948H3.974A3.974 3.974 0 0 1 0 3.974v32.585a6.358 6.358 0 0 0 6.358 6.358h38.148V30.2"/>
                <path stroke="#57B0CC" stroke-linecap="round" stroke-linejoin="round" stroke-width="2" d="M47.685 30.2H36.56a4.768 4.768 0 1 1 0-9.537h11.126v9.538z"/>
            </g>
        </g>
        <g transform="translate(268 779)">
            <rect width="32" height="32" x="325" rx="8"/>
            <path stroke="#BBE4F2" stroke-linecap="round" stroke-linejoin="round" stroke-width="3.6" d="M25 14l7.416 15.14L49 31.568 37 43.356 39.832 60 25 52.145 10.168 60 13 43.356 1 31.568l16.584-2.428z"/>
        </g>
        <g stroke-linecap="round" stroke-linejoin="round" stroke-width="3" opacity=".504">
            <path stroke="#BBE4F2" d="M663.61 1103.029l8.863 1.563-4.167 23.635-8.864-1.563z"/>
            <path stroke="#71CFEB" d="M674.214 1129.269l20.386 3.595a6 6 0 0 0 6.583-3.61l5.887-14.194a6 6 0 0 0-4.511-8.21l-11.838-2.087 2.083-11.818a6 6 0 0 0-4.867-6.95l-9.034 16.684"/>
        </g>
        <g stroke-linecap="round" stroke-linejoin="round" stroke-width="2.8" opacity=".371" transform="rotate(-7 3990.357 -4065)">
            <path stroke="#71CFEB" d="M21.303 57.132S0 35.828 0 21.4C0 7.856 11.009 0 21.303 0c10.295 0 21.304 7.856 21.304 21.4a22.385 22.385 0 0 1-1.577 7.65"/>
            <circle cx="21.303" cy="21.303" r="7.747" stroke="#71CFEB"/>
            <path stroke="#57B0CC" d="M36.797 42.607v7.746M32.923 46.48h7.747"/>
            <circle cx="36.797" cy="46.48" r="11.62" stroke="#57B0CC"/>
        </g>
        <g fill="#71CFEB" fill-rule="nonzero" opacity=".3">
            <path d="M84.102 222.787c-.47.008-11.724-.13-16.484 4.63-4.64 4.641-6.954 11.908-2.812 16.053a7.5 7.5 0 0 0 5.466 2.155 15.994 15.994 0 0 0 10.586-4.968c4.76-4.76 4.64-16.01 4.63-16.484a1.406 1.406 0 0 0-1.385-1.385zm-11.27 10.67v-6.015a28.976 28.976 0 0 1 7.688-1.677l-7.688 7.692zm9.682-5.702v-.004a34.683 34.683 0 0 1-.795 4.88h-4.085l4.88-4.876zm-12.906 1.656c.126-.127.27-.247.411-.366v7.224l-4.032 4.033c-1.297-2.806.133-7.408 3.62-10.895v.004zm-1.631 12.88l6.845-6.848h6.018-.003a9.542 9.542 0 0 1-1.969 3.224c-3.487 3.487-8.09 4.918-10.894 3.62l.003.004zM64.805 251.324a8.262 8.262 0 0 0-1.856 7.917 17.001 17.001 0 0 0 4.669 8.135c4.437 4.437 14.513 4.63 16.246 4.63h.239a1.406 1.406 0 0 0 1.385-1.385c.007-.478.127-11.724-4.63-16.484-4.637-4.63-11.91-6.954-16.052-2.813zm15.719 17.708a28.826 28.826 0 0 1-7.692-1.673v-6.019l7.692 7.692zm-2.89-6.87h4.085c.377 1.607.64 3.235.791 4.877l-4.876-4.876zm1.234-6.036a9.598 9.598 0 0 1 1.969 3.224h-6.015l-6.835-6.83c.732-.331 1.523-.5 2.324-.49a12.936 12.936 0 0 1 8.557 4.096zm-13.173 2.51v-.003a6.635 6.635 0 0 1 .281-4.141l4.043 4.036v7.224c-.14-.12-.281-.239-.411-.365a14.373 14.373 0 0 1-3.913-6.754v.004zM1.113 243.88v8.438a18.302 18.302 0 0 0 18.28 18.281h30.938a1.408 1.408 0 0 0 1.406-1.406v-11.25a1.408 1.408 0 0 0-1.406-1.406H19.393a4.218 4.218 0 0 1-4.218-4.22v-8.437a4.218 4.218 0 0 1 4.218-4.218h30.938a1.408 1.408 0 0 0 1.406-1.407v-11.25a1.408 1.408 0 0 0-1.406-1.406H19.393a18.302 18.302 0 0 0-18.28 18.28v.002zm47.812 15.47v8.438h-2.813v-8.438h2.813zm-36.563-15.47v8.438a7.038 7.038 0 0 0 7.032 7.032H43.3v8.437H19.394a15.477 15.477 0 0 1-10.933-4.535c-2.9-2.9-4.532-6.831-4.536-10.933H9.55v-2.813H3.925v-2.812h2.813v-2.813H3.925a15.477 15.477 0 0 1 4.536-10.933c2.9-2.9 6.83-4.532 10.933-4.535H43.3v8.437H19.394a7.038 7.038 0 0 0-7.031 7.032v-.001zm36.563-15.468v8.437h-2.813v-8.437h2.813zM54.55 225.6h9.844v2.812H54.55zM54.55 231.225h5.625v2.813H54.55zM54.55 267.788h9.844v2.812H54.55zM54.55 262.163h5.625v2.812H54.55z"/>
            <path d="M41.894 243.88H58.77v2.813H41.894zM44.706 249.506h14.062v2.812H44.706z"/>
        </g>
        <path fill="#71CFEB" fill-rule="nonzero" d="M508.8 1309.15H489v-9h11.7a7.126 7.126 0 0 0 5.164-2.187 7.176 7.176 0 0 0 2.036-5.227c-.116-3.854-3.445-6.986-7.425-6.986h-6.427l-9.935-23.238c-1.079-2.528-3.005-4.465-5.319-5.534a8.043 8.043 0 0 0 2.106-5.428c0-4.464-3.635-8.1-8.1-8.1s-8.1 3.636-8.1 8.1c0 2.296.963 4.356 2.493 5.833-4.138 2.07-6.993 6.335-6.993 11.268v40.5H453c-.63 0-1.252.091-1.835.242-.334-4.159-3.815-7.442-8.065-7.442-4.465 0-8.1 3.635-8.1 8.1s3.635 8.1 8.1 8.1c.991 0 1.944-.19 2.816-.513.612 3.357 3.554 5.913 7.084 5.913h55.8c3.97 0 7.2-3.231 7.2-7.2 0-3.97-3.23-7.2-7.2-7.2v-.001zm-65.7 5.4a4.5 4.5 0 1 1 0-9 4.5 4.5 0 0 1 0 9zm57.375-25.2c2.053 0 3.762 1.564 3.825 3.491a3.604 3.604 0 0 1-1.016 2.62 3.58 3.58 0 0 1-2.584 1.089h-13.5c-.991 0-1.8.809-1.8 1.8v10.8h-7.2v-17.1a2.71 2.71 0 0 1 2.7-2.7h19.575zm-27.675-42.3a4.5 4.5 0 1 1 0 9 4.5 4.5 0 0 1 0-9zm1.8 72.9H453c-1.99 0-3.6-1.61-3.6-3.6s1.61-3.6 3.6-3.6h21.6v7.2zm0-10.8h-10.8v-14.4h10.8v14.4zm.07-18H463.8v-22.5c0-4.96 4.04-9 9-9h1.8c.19 0 .38.01.56.018 2.404.19 4.615 1.852 5.642 4.257l9.334 21.825h-6.884l-4.985-11.654a1.795 1.795 0 0 0-2.36-.946 1.79 1.79 0 0 0-.945 2.36l4.454 10.43a6.293 6.293 0 0 0-4.746 5.21zm34.13 28.8h-30.6v-7.2h30.6c1.99 0 3.6 1.61 3.6 3.6s-1.61 3.6-3.6 3.6z" opacity=".3"/>
        <path fill="#71CFEB" fill-rule="nonzero" d="M21.06 1859.77l-.082-.083c-2.13-2.138-5.395-2.461-7.882-.996l-.136-14.061a6.488 6.488 0 0 0-6.48-6.48 6.488 6.488 0 0 0-6.48 6.48v24.803a4.88 4.88 0 0 0 1.028 2.996l13.21 16.871c.222.285.342.633.342.997v4.553c0 .892.728 1.62 1.62 1.62h16.2c.893 0 1.62-.728 1.62-1.62v-18.235c0-1.167-.42-2.29-1.183-3.177L21.06 1859.77zm9.72 33.46H17.82v-2.933a4.88 4.88 0 0 0-1.028-2.996l-13.21-16.871a1.618 1.618 0 0 1-.342-.997v-24.803c0-1.79 1.449-3.24 3.24-3.24 1.79 0 3.24 1.45 3.24 3.256l.193 19.633v.016a6.441 6.441 0 0 0 1.847 4.496l4.335 5.145a1.62 1.62 0 0 0 2.285.186c.68-.576.769-1.595.193-2.275l-4.373-5.182a.778.778 0 0 0-.098-.105 3.238 3.238 0 0 1 4.544-4.613l11.735 13.615c.26.291.395.671.395 1.06l.004 16.608zm35.64-55.08c-3.572 0-6.48 2.908-6.48 6.464l-.14 14.077a6.496 6.496 0 0 0-3.296-.908c-1.734 0-3.36.67-4.585 1.905l-.082.082-11.783 13.672a4.898 4.898 0 0 0-1.174 3.174v18.234c0 .893.728 1.62 1.62 1.62h16.2c.892 0 1.62-.727 1.62-1.62v-4.553c0-.364.12-.712.342-.996l13.203-16.871a4.85 4.85 0 0 0 1.038-2.996l-.003-24.803a6.488 6.488 0 0 0-6.48-6.48v-.001zm3.24 31.283c0 .364-.12.712-.342.997l-13.204 16.87a4.85 4.85 0 0 0-1.037 2.997l.003 2.933H42.12v-16.615c0-.39.14-.769.389-1.06l11.745-13.615a3.238 3.238 0 0 1 4.544.035 3.248 3.248 0 0 1 0 4.584 1.627 1.627 0 0 0-.099.105l-4.372 5.183a1.615 1.615 0 0 0 .193 2.275 1.62 1.62 0 0 0 2.284-.187l4.335-5.145a6.475 6.475 0 0 0 1.838-4.43c0-.025.01-.047.01-.082l.193-19.649c0-1.79 1.449-3.24 3.24-3.24 1.79 0 3.24 1.45 3.24 3.24v24.804zm-20.899-23.759c3.338-4.445 4.009-10.042 1.709-14.263a1.639 1.639 0 0 0-1.07-.81c-3.395-.753-7.03.193-10.052 2.44-4.024-5.016-10.292-7.518-15.703-6.23a1.602 1.602 0 0 0-1.054.819c-2.632 4.999-1.702 11.833 2.316 17.01 2.721 3.515 6.537 5.831 10.416 6.562.073.025.14.057.203.073.778.17 1.572.25 2.366.25 3.993 0 8.075-2.14 10.869-5.85zm-15.447 1.557c-2.18-.93-4.236-2.493-5.847-4.575-3.069-3.952-3.961-9.008-2.332-12.84 4.098-.624 8.765 1.48 11.828 5.42-.266.306-.535.632-.794.965-2.544 3.382-3.534 7.426-2.854 11.03zm3.661.997c-1.246-2.997-.576-6.942 1.782-10.078 2.357-3.135 5.96-4.875 9.195-4.512 1.246 2.997.576 6.949-1.782 10.084-2.357 3.136-5.97 4.885-9.195 4.506z" opacity=".4"/>
        <g fill="#71CFEB" fill-rule="nonzero" opacity=".4">
            <path d="M810.053 63.174h-66.445c-.61 0-1.108-.497-1.108-1.108v-6.328c0-.61.497-1.107 1.108-1.107h66.445c.61 0 1.107.496 1.107 1.107v6.328c0 .61-.496 1.108-1.107 1.108zm-65.338-2.215h64.23v-4.114h-64.23v4.114z"/>
            <path d="M810.053 56.846h-66.445c-.61 0-1.108-.497-1.108-1.108v-7.752a4.435 4.435 0 0 1 4.43-4.43h59.8a4.435 4.435 0 0 1 4.43 4.43v7.752c0 .611-.496 1.108-1.107 1.108zm-65.338-2.215h64.23v-6.645a2.217 2.217 0 0 0-2.214-2.214h-59.8a2.217 2.217 0 0 0-2.216 2.214v6.645zM751.312 17.798c-1.206 0-2.237-.88-2.75-2.186a3.927 3.927 0 0 1-1.572.348c-.75 0-1.43-.266-1.915-.753-.854-.855-.961-2.206-.395-3.49-1.304-.513-2.18-1.544-2.18-2.747 0-1.208.88-2.24 2.19-2.75-.564-1.284-.453-2.635.401-3.486.49-.49 1.152-.75 1.914-.75.523 0 1.06.124 1.58.351.512-1.303 1.54-2.18 2.746-2.18 1.208 0 2.24.88 2.75 2.187a3.924 3.924 0 0 1 1.569-.348c.75 0 1.43.265 1.914.75.854.854.962 2.205.395 3.493 1.304.512 2.18 1.54 2.18 2.746 0 1.209-.88 2.24-2.19 2.75.561 1.284.453 2.632-.398 3.483-.49.49-1.151.75-1.91.75-.523 0-1.06-.123-1.58-.354-.519 1.31-1.547 2.186-2.75 2.186zm-1.984-5.142a1.106 1.106 0 0 1 1.107 1.098c.01 1.136.573 1.83.877 1.83.3 0 .864-.694.876-1.826a1.107 1.107 0 0 1 1.883-.778c.582.572 1.19.774 1.566.774.11 0 .263-.019.348-.1.215-.216.123-1.102-.67-1.912a1.107 1.107 0 0 1 .78-1.883c1.134-.01 1.83-.572 1.83-.876 0-.3-.693-.864-1.826-.876a1.107 1.107 0 0 1-.778-1.883c.794-.81.889-1.7.674-1.911-.086-.086-.238-.101-.348-.101-.374 0-.981.202-1.564.772a1.107 1.107 0 0 1-1.882-.782c-.01-1.133-.573-1.829-.877-1.829-.3 0-.863.693-.876 1.826a1.107 1.107 0 0 1-1.883.778c-.582-.572-1.19-.775-1.563-.775-.114 0-.266.02-.348.101-.215.215-.12 1.101.671 1.908.31.317.402.788.231 1.2-.17.41-.57.68-1.013.683-1.132.01-1.828.573-1.828.876 0 .3.693.864 1.825.877.443.006.842.275 1.013.683.17.412.076.883-.234 1.2-.794.81-.886 1.695-.674 1.91.088.09.256.102.348.102.373 0 .98-.203 1.563-.772.209-.206.487-.313.772-.313zM753.1 69.502h-9.493c-.61 0-1.107-.497-1.107-1.107v-6.329c0-.61.496-1.107 1.107-1.107h9.492c.611 0 1.108.497 1.108 1.107v6.329c0 .61-.497 1.107-1.108 1.107zm-8.386-2.215h7.278v-4.113h-7.278v4.113zM810.053 69.502h-9.492c-.611 0-1.108-.497-1.108-1.107v-6.329c0-.61.497-1.107 1.108-1.107h9.492c.61 0 1.107.497 1.107 1.107v6.329c0 .61-.496 1.107-1.107 1.107zm-8.385-2.215h7.277v-4.113h-7.277v4.113z"/>
            <path d="M798.979 45.771h-33.223c-.611 0-1.108-.496-1.108-1.107v-6.382a4.222 4.222 0 0 1 4.218-4.218h22.202c4.974 0 9.018 4.044 9.018 9.018v1.582c0 .61-.497 1.108-1.108 1.108zm-32.115-2.214h31.007v-.475a6.808 6.808 0 0 0-6.802-6.803h-22.202a2.005 2.005 0 0 0-2.003 2.003v5.275zM757.055 45.771a5.07 5.07 0 0 1-5.063-5.062 5.07 5.07 0 0 1 5.063-5.063 5.07 5.07 0 0 1 5.062 5.063 5.07 5.07 0 0 1-5.062 5.062zm0-7.91a2.852 2.852 0 0 0-2.848 2.848 2.852 2.852 0 0 0 2.848 2.848 2.852 2.852 0 0 0 2.847-2.848 2.852 2.852 0 0 0-2.847-2.848zM782.367 17.295a5.07 5.07 0 0 1-5.062-5.062 5.07 5.07 0 0 1 5.062-5.063 5.07 5.07 0 0 1 5.063 5.063 5.07 5.07 0 0 1-5.063 5.062zm0-7.91a2.852 2.852 0 0 0-2.847 2.848 2.852 2.852 0 0 0 2.847 2.847 2.852 2.852 0 0 0 2.848-2.847 2.852 2.852 0 0 0-2.848-2.848z"/>
            <path d="M784.74 45.771h-11.864c-1.921 0-3.48-1.56-3.48-3.48s1.559-3.48 3.48-3.48h11.864c.611 0 1.108.496 1.108 1.107v4.746c0 .61-.497 1.107-1.108 1.107zm-11.864-4.746a1.265 1.265 0 1 0 0 2.532h10.757v-2.532h-10.757zM791.068 36.28h-9.492c-.61 0-1.108-.498-1.108-1.108V30.26l-4.347 5.588a1.106 1.106 0 0 1-.873.427h-6.328a1.108 1.108 0 0 1-.873-1.788l10.1-12.985a4.324 4.324 0 0 1 3.432-1.68l9.49.003c.61 0 1.107.497 1.107 1.108v14.238c0 .61-.497 1.107-1.108 1.107zm-8.385-2.216h7.277V22.041h-8.381c-.665 0-1.279.3-1.687.825l-8.71 11.198h3.521l5.996-7.708a1.106 1.106 0 0 1 1.98.68l.004 7.028zM746.772 30.425h3.164v3.164h-3.164zM749.936 27.261h3.164v3.164h-3.164zM743.607 27.261h3.164v3.164h-3.164zM746.772 24.098h3.164v3.164h-3.164zM803.724 24.098h3.164v3.164h-3.164zM806.888 20.934h3.164v3.164h-3.164z"/>
            <path d="M800.56 20.934h3.165v3.164h-3.164zM803.724 17.77h3.164v3.164h-3.164z"/>
        </g>
        <use fill="#A1DCF0" opacity=".317" transform="rotate(10 1045 159)" xlink:href="#a"/>
        <g opacity=".373" transform="translate(1013 464)">
            <rect width="42.939" height="43.834" rx="2.2"/>
            <path stroke="#71CFEB" stroke-linecap="round" stroke-linejoin="round" stroke-width="2.2" d="M19.862 11.187v12.785h12.785"/>
            <path stroke="#57B0CC" stroke-linecap="round" stroke-linejoin="round" stroke-width="2.2" d="M3.539 21.46a18.835 18.835 0 1 1 5.907 13.698"/>
            <path fill="#71CFEB" fill-rule="nonzero" d="M6.963 42.008l-4.11-11.644 12.33.685z"/>
        </g>
        <path fill="#71CFEB" fill-rule="nonzero" d="M788.4 683.4h-23.418a8.942 8.942 0 0 0 1.818-5.4c0-4.96-4.04-9-9-9-4.961 0-9 4.04-9 9 0 2.025.685 3.895 1.817 5.4H727.2a6.308 6.308 0 0 0-6.3 6.3c0 3.473 2.827 6.3 6.3 6.3H747v10.34l-7.667 13.285a5.77 5.77 0 0 0 0 5.85 5.782 5.782 0 0 0 5.066 2.925h11.601v11.7c0 3.473 2.827 6.3 6.3 6.3 3.474 0 6.3-2.827 6.3-6.3V696h19.8c3.474 0 6.3-2.827 6.3-6.3s-2.826-6.3-6.3-6.3h.001zm-30.6-10.8c2.978 0 5.4 2.422 5.4 5.4s-2.422 5.4-5.4 5.4a5.406 5.406 0 0 1-5.4-5.4c0-2.978 2.422-5.4 5.4-5.4zm-30.6 19.8a2.71 2.71 0 0 1-2.7-2.7 2.71 2.71 0 0 1 2.7-2.7H747v5.4h-19.8zm28.8 32.4h-11.602c-1.17 0-1.754-.784-1.955-1.125-.19-.341-.583-1.234 0-2.25l7.411-12.825h5.193l-5.193 9a1.8 1.8 0 0 0 1.557 2.7H756v4.5zm0-8.1h-1.466l1.466-2.545v2.545zm9 23.4a2.71 2.71 0 0 1-2.7 2.7 2.71 2.71 0 0 1-2.7-2.7v-31.5h5.4v31.5zm0-35.1h-14.4v-18H765v18zm23.4-12.6h-19.8V687h19.8a2.71 2.71 0 0 1 2.7 2.7 2.71 2.71 0 0 1-2.7 2.7z" opacity=".3"/>
        <g fill="#71CFEB" fill-rule="nonzero" opacity=".3">
            <path d="M1157.668 1630.058c-.018-.11-.035-.218-.053-.32-1.178-3.382-1.498-9.397-.858-16.584 2.5-1.645 15.649-11.443 6.993-30.655-.063-.148-.134-.296-.204-.443-2.088-4.472-5.196-8.81-8.199-13.015-1.293-1.807-2.615-3.65-3.86-5.513a67.227 67.227 0 0 1-2.552-4.078c-2.65-4.605-7.313-5.365-10.526-4.12h.004a6.92 6.92 0 0 0-3.959 3.762c-.007.014-.014.035-.02.049-14.492.773-26.22 10.61-25.813 23.794.057 1.891.387 4.662.38 6.476-.014 6.447-5.59 9.092-5.695 11.144-.176 3.368 3.775 2.314 5.175 7.08 1.765 6.048-.774 12.946 7.467 12.516 3.29-.133 8.634-1.406 10.927.725 1.462 1.357 2.637 7.277 3.094 9.9a1.52 1.52 0 0 0 1.497 1.258h24.75a1.522 1.522 0 0 0 1.463-1.94l-.011-.036zm-16.404-16.855a2.183 2.183 0 0 1 1.75-.864c.19-.004.376.017.563.056 2.18.429 5.287 3.431 7.115 8.247-5.343-.182-8.711-2.27-9.73-4.387a2.703 2.703 0 0 1 .302-3.052zm-2.208-56.235a6.227 6.227 0 0 1 2.264-.415 6.98 6.98 0 0 1 6.096 3.776c.302.527.612 1.047.942 1.568 1.709 2.777 3.663 5.512 5.562 8.17 3.058 4.268 6.222 8.684 8.233 13.155a33.929 33.929 0 0 1 1.878 5.196c3.459 12.846-3.84 20.011-7.098 22.48.73-12.632-2.718-30.112-9.985-37.972a.88.88 0 0 0-1.245-.05.886.886 0 0 0-.049 1.245c6.89 7.457 10.385 25.158 9.465 37.526-.32-.053-.71-.127-1.175-.232-4.479-1.09-14.983-5.415-16.854-22.142v-.004a41.114 41.114 0 0 1-.007-8.001 53.702 53.702 0 0 0-1.287-17.438 6.121 6.121 0 0 1 .591-4.669c.014-.024.032-.045.05-.07a5.411 5.411 0 0 1 2.615-2.123h.004zM1159.534 1564.948c1.27.802 3.041.411 3.875.155a.582.582 0 0 0 .414-.65c-.126-.862-.534-2.634-1.803-3.435-1.27-.802-3.045-.412-3.874-.155h-.004a.583.583 0 0 0-.411.654c.126.861.534 2.63 1.803 3.431zM1124.126 1555.379c.836.243 2.615.608 3.874-.211 1.258-.82 1.638-2.595 1.754-3.46h-.003a.586.586 0 0 0-.422-.646c-.837-.243-2.616-.608-3.874.21-1.259.82-1.639 2.595-1.755 3.46h.004a.582.582 0 0 0 .422.647z"/>
            <path d="M1181.079 1568.931a4.812 4.812 0 0 0-3.291-1.975c-4.162-.82-6.859 2.123-9.714 5.238a28.673 28.673 0 0 1-5.22 4.823.87.87 0 0 0-.377.556.878.878 0 0 0 1.343.914 30.229 30.229 0 0 0 5.552-5.105c2.728-2.977 4.886-5.33 8.079-4.7a3.155 3.155 0 0 1 2.162 1.22c1.033 1.56.386 4.662-.433 8.585-.731 3.498-1.638 7.854-1.582 12.547.172 13.97-9.734 20.415-19.062 21.79h.004a.878.878 0 0 0 .126 1.747c.042 0 .085 0 .13-.007 9.602-1.413 20.75-8.43 20.564-23.555.06-4.099.576-8.18 1.543-12.164.903-4.324 1.617-7.745.176-9.915v.001zM1168.113 1617.036c-1.93.362-3.783 2.858-5.509 7.407a16.136 16.136 0 0 1-3.744 2.802.88.88 0 0 0-.32 1.199.877.877 0 0 0 1.202.32 18.107 18.107 0 0 0 4.1-3.07c4.04-.994 6.932-2.858 7.576-4.904a2.674 2.674 0 0 0-.584-2.682 2.833 2.833 0 0 0-2.72-1.072zm1.628 3.227c-.327 1.03-1.951 2.373-4.9 3.33 1.8-4.163 3.18-4.75 3.592-4.828l.004-.003a.874.874 0 0 1 .165-.014c.369.031.71.225.921.53.26.257.344.64.218.985z"/>
        </g>
    </g>
</svg>
