<svg xmlns="http://www.w3.org/2000/svg" width="80" height="77" viewBox="0 0 80 77">
    <g fill="none" fill-rule="nonzero">
        <path fill="#143D6C" stroke="#143D6C" stroke-width="1.6" d="M34.328 35.047l1.6-1.44.8-.729.2-.184.262-.262c.194-.182.37-.382.529-.591a6.929 6.929 0 0 0-8.8-10.337c-.225.128-.44.271-.647.415-.21.144-.44.338-.56.447l-.8.697-1.559 1.378-2.953 2.672c-3.784 3.487-6.953 6.512-8.937 8.687-.138.153.08.647.48 1.097.4.447.754.631.904.528 2.472-1.6 6-4.231 10.031-7.41L28 27.554l1.6-1.303.8-.662c.144-.12.184-.128.272-.21l.256-.153a2.7 2.7 0 0 1 2.297-.072 2.663 2.663 0 0 1 1.488 1.744 2.618 2.618 0 0 1-.45 2.247 1.3 1.3 0 0 1-.191.225l-.119.128-.2.184-.8.744-1.553 1.481c-2.056 1.96-4 3.882-5.847 5.688l-1.01 1.01c-.19.974.41-2.17-.424 2.184v.047l.047.087.097.185v-.004c.24.479.453.966.64 1.466.36.938.628 1.906.8 2.894.256 1.634.275 3.294.056 4.928 0 .19.447.487 1.047.64.6.154 1 .104 1.082-.08v.002c.684-1.825.993-3.768.912-5.712a16.553 16.553 0 0 0-.528-3.672 24.145 24.145 0 0 0-.288-.969l.185-.159a330.646 330.646 0 0 0 6.16-5.394h-.001z"/>
        <path fill="#71CFEB" stroke="#71CFEB" stroke-width="1.6" d="M26.575 19.36a9.07 9.07 0 0 0 5.656-5.6c.357-.96.432-2 .216-3a4.303 4.303 0 0 0-1.128-.335 4.76 4.76 0 0 0-1.006-.163 16.16 16.16 0 0 0-1.513 1.722 27.859 27.859 0 0 1-1.84 2.097 27.541 27.541 0 0 1-2.097 1.856 16.18 16.18 0 0 0-1.766 1.535c.022.38.081.76.184 1.128.054.328.154.644.294.944.997.228 2.04.162 3-.185zM68.882 26.847a4.891 4.891 0 0 0-2.754.353 8.594 8.594 0 0 0-4.937 5.416 4.885 4.885 0 0 0-.11 2.784c.36.157.738.266 1.129.328.328.091.665.147 1.006.17.938-.8 1.897-2.288 3.081-3.576 1.185-1.287 2.544-2.4 3.257-3.44a5.923 5.923 0 0 0-.307-1.113 3.782 3.782 0 0 0-.365-.922zM66.303 13.8c-1.19-1.281-2.169-2.76-3.112-3.569a6.076 6.076 0 0 0-1.135.2 3.971 3.971 0 0 0-.943.288 4.89 4.89 0 0 0 .087 2.778 8.59 8.59 0 0 0 4.919 5.431 4.925 4.925 0 0 0 2.753.369 4.9 4.9 0 0 0 .44-1.088c.132-.325.226-.665.288-1.009-.744-1-2.128-2.103-3.297-3.4zM56.138 21.975a7.89 7.89 0 0 0 0 1.153 6.552 6.552 0 0 0 0 .991c1.312 1.497 5.28 1.503 6.59 0 .025-.39.025-.784 0-1.175.025-.34.025-.684 0-1.025-1.303-1.447-5.272-1.438-6.59.056z"/>
        <path fill="#143D6C" stroke="#143D6C" stroke-width="1.6" d="M79.2 6.256a5.177 5.177 0 0 0-2.64-4.168 5.224 5.224 0 0 0-2.463-.647H63.759l-11.616.047-21.937.209-9.944.153v-.003c-.472-.003-.944.019-1.416.066a4.673 4.673 0 0 0-3.837 3.43 4.516 4.516 0 0 0-.147.866V8l.047 2.16c.053 2.278.112 4.428.175 6.446a69.909 69.909 0 0 0-3.154 2.569l-2.143 1.872c-.375.344-.738.656-1.153 1.047l.006.003c-.44.412-.856.853-1.24 1.319a15.32 15.32 0 0 0-3.298 7.096 14.993 14.993 0 0 0-.231 2.079v5.625c0 9.272.338 18.544.984 23.752l-2.19.082-.178-.004a1.792 1.792 0 0 0-1.235.591 1.792 1.792 0 0 0-.453 1.29c.185 4.863.447 8.8.8 11.473 0 .21.544.369 1.153.353.61-.016.969-.169.99-.353.288-2.328.529-5.6.704-9.553 10.175.36 23.297.369 33.497 0 .175 3.928.41 7.2.697 9.518 0 .216.56.375 1.175.36.615-.013.984-.14.984-.325.338-2.713.59-6.663.8-11.463a1.8 1.8 0 0 0-1.728-1.865h-.144l-3.487-.119a15.94 15.94 0 0 0 .343-1.753c.32-.185.632-.39.944-.616a12.54 12.54 0 0 0 2.063-1.903 12.233 12.233 0 0 0 2.578-4.737c.4-1.279.462-2.635.184-3.944a3.325 3.325 0 0 0-1.153-.256 3.316 3.316 0 0 0-1.025 0c-.897 1.415-2.056 4-3.912 6.08a20.09 20.09 0 0 1-1.432 1.488c-.246.225-.496.457-.743.663l-.185.16-.097.08h-.046l-.96 1.713.063.553c.1.81.256 1.61.465 2.4a544.678 544.678 0 0 0-26.072.056c.647-5.225.975-14.447.975-23.672V32.76c.007-.51.047-1.022.122-1.528.266-1.95.99-3.813 2.11-5.431.262-.378.546-.74.85-1.088l1-1.128 1.871-2.144L15.2 20.2c.056 1.6.119 3.112.184 4.487a1.066 1.066 0 0 0 1.175.953 1.05 1.05 0 0 0 1.041-.944c.184-3.928.344-8.847.488-14.512l.046-2.16V6.496h.004c.053-.41.303-.769.671-.96.344-.159.41-.152 1.4-.127l9.944.153 21.984.237h21.919a.81.81 0 0 1 .369.097c.221.128.365.36.39.616v8.697l.056 11.616.088 11.247v1.369c.01.456-.3.859-.744.968a1.84 1.84 0 0 1-.262 0H69.36c-13.8.191-25.6.472-33.472.841l-.003-.003a1.028 1.028 0 0 0-.703.384 1.037 1.037 0 0 0-.225.769c.015.519.412.944.928.99 7.856.376 19.672.657 33.472.841h4.594c.356.003.712-.028 1.062-.093a4.99 4.99 0 0 0 4-4.85v-1.37l.088-11.246.097-11.425.001-8.99z"/>
        <path fill="#71CFEB" stroke="#71CFEB" stroke-width=".8" d="M64.297 56.513l.897.287h-.003c.493.16 1.009.247 1.528.257a4.871 4.871 0 0 0 2.793-.857A4.67 4.67 0 0 0 71.2 54.17c.075-.181.137-.366.19-.553l.088-.369.153-.712v.003a19.53 19.53 0 0 0 .369-2.4c0-.097-.472-.344-1.047-.553-.575-.21-.96-.272-1.015-.2-.472.668-.9 1.365-1.282 2.087l-.344.647-.175.338c-.034.056-.071.109-.112.159a1.271 1.271 0 0 1-.522.344c-.19.053-.39.053-.584 0a1.43 1.43 0 0 1-.272-.103l-.872-.36c-1.175-.481-2.4-.944-3.616-1.39-4.903-1.791-9.944-3.2-12.64-3.416-.097 0-.338.456-.538 1.025s-.262.928-.19.984c2.184 1.6 6.959 3.744 11.862 5.538 1.21.46 2.444.89 3.644 1.275z"/>
        <path fill="#71CFEB" stroke="#71CFEB" stroke-width="1.6" d="M46.118 55.4c-.368.4-.615.744-.584.8 1.056 2.025 4 5.281 7.119 8.262l1.19 1.104.6.537.17.144.262.215h.006a4.864 4.864 0 0 0 5.437.384c.332-.193.638-.427.913-.693.128-.128.256-.272.36-.4l.2-.272c.255-.36.496-.703.712-1.031v-.003c.384-.569.722-1.163 1.015-1.785 0-.072-.312-.48-.8-.903-.487-.425-.8-.64-.8-.61v.004c-.6.328-1.175.703-1.718 1.119a13.43 13.43 0 0 0-.991.8l-.256.215-.128.072a1.375 1.375 0 0 1-.25.081 1.082 1.082 0 0 1-.904-.209l-.8-.8-1.168-1.128c-3.2-2.975-6.575-5.681-8.663-6.616-.112-.087-.512.266-.922.713zM47.872 9.8c-.39-.022-.784-.022-1.175 0a9.345 9.345 0 0 0-1.025 0 3.445 3.445 0 0 0-1.097 2.697 6.561 6.561 0 0 0-1.862.75 6.244 6.244 0 0 0-2.641 3.05 6.443 6.443 0 0 0-.472 2.078 5.892 5.892 0 0 0 1.431 4.338 7.143 7.143 0 0 0 1.688 1.406 11.88 11.88 0 0 0 3.562 1.384 8.41 8.41 0 0 1 2.279.8c.475.25.843.663 1.04 1.16.163.5.163 1.037 0 1.537-.153.513-.472.96-.903 1.272a3.818 3.818 0 0 1-1.6.681 4.076 4.076 0 0 1-1.65 0 4.343 4.343 0 0 1-2.36-1.6c-.071-.087-.59 0-1.143.272s-.8.497-.8.656a5.912 5.912 0 0 0 3.2 3.55l.2.082a2.868 2.868 0 0 0 1.119 2.343h1.153c.331.016.662.016.994 0a2.748 2.748 0 0 0 1.103-2.031 6.639 6.639 0 0 0 1.862-.744 6.24 6.24 0 0 0 2.65-3.04c.272-.66.431-1.36.472-2.072a5.906 5.906 0 0 0-1.416-4.328 7.223 7.223 0 0 0-1.656-1.441 11.88 11.88 0 0 0-3.562-1.384 8.41 8.41 0 0 1-2.278-.8 2.231 2.231 0 0 1-1.072-1.097 2.502 2.502 0 0 1 0-1.528c.147-.507.46-.95.887-1.263a3.762 3.762 0 0 1 1.6-.681 3.942 3.942 0 0 1 1.6 0c.96.237 1.806.797 2.4 1.584.072.088.6 0 1.169-.272.512-.225.862-.512.8-.672a5.94 5.94 0 0 0-3.2-3.55l-.2-.08A3.587 3.587 0 0 0 47.872 9.8z"/>
    </g>
</svg>
