<svg xmlns="http://www.w3.org/2000/svg" width="128" height="73" viewBox="0 0 128 73">
    <g fill="none" fill-rule="nonzero" stroke-width="2.2">
        <path fill="#143D6C" stroke="#143D6C" d="M41.928 32.07c-2.495-.831-5.199 0-6.447 2.08l-1.04 1.248V31.24c.208-1.248.416-2.288.832-3.328L43.8 9.195c1.04-2.08.624-4.367-1.04-6.031-1.248-1.04-2.704-1.456-4.16-1.456-1.663.208-2.91.832-3.95 2.08L21.962 19.8c-1.248 1.456-2.08 3.328-2.703 5.2l-3.536 12.685H1.166v33.275h16.637v-4.16h2.08c14.974 0 20.38-3.327 20.797-13.101 0-.624.208-1.456.416-2.704l4.367-11.438c.624-1.664.416-3.12-.208-4.575a5.147 5.147 0 0 0-3.327-2.912zM5.326 66.803V41.846h8.319v24.956h-8.32zM41.72 38.311l-4.368 11.438c-.624 1.248-.832 2.496-.832 3.743-.208 5.616-1.455 9.151-16.637 9.151h-2.08v-16.43l5.615-19.965c.416-1.456 1.04-2.703 1.872-3.743L37.977 6.49c.208-.415.624-.415.832-.415.208 0 .416 0 .832.415.208.208.416.832.208 1.248l-8.527 18.717c-.624 1.871-.832 3.535-1.04 4.991v16.43l8.735-11.022c.416-.624 1.248-.832 1.872-.624.416.208.624.416.832.832.208.416.208.831 0 1.247zM111.182 37.685l-3.328-12.478c-.624-1.872-1.456-3.536-2.704-5.2L92.464 3.995c-1.04-1.247-2.495-2.08-3.951-2.08-1.664-.207-3.12.417-4.16 1.457-1.455 1.663-1.871 3.951-1.04 6.03l8.527 18.717c.624 1.248.832 2.288.832 3.328v4.16l-.832-1.04c-1.455-2.08-4.159-3.12-6.655-2.288a5.147 5.147 0 0 0-3.327 2.911c-.624 1.456-.832 3.12-.208 4.575l4.367 11.439c.208.832.416 1.663.416 2.495.416 9.775 5.823 13.102 20.797 13.102h2.08v4.16h16.637V37.685h-14.765zm-3.536 24.957c-15.181 0-16.43-3.744-16.637-9.151-.208-1.248-.416-2.496-.832-3.744L85.809 38.31a1.326 1.326 0 0 1 0-1.248c0-.416.416-.624.832-.832h.416c.416 0 1.04.416 1.456.832l8.319 10.814V31.238c0-1.248-.208-3.12-1.04-4.783L87.265 7.738c-.208-.416-.208-.832.208-1.248.208-.416.624-.416.832-.416.208 0 .624 0 .832.416l13.31 15.806c.832 1.04 1.456 2.288 1.872 3.743l4.991 18.717v17.886h-1.664zm14.142 4.159h-8.319V41.844h8.319v24.957z"/>
        <path fill="#71CFEB" stroke="#71CFEB" d="M71.876 25.208h4.16c0-6.239-4.576-11.23-10.4-12.27V8.571h-4.159v4.367c-5.823 1.04-10.398 6.24-10.398 12.27 0 6.031 4.575 11.23 10.398 12.27v16.43c-3.535-.832-6.239-4.16-6.239-8.11h-4.16c0 6.239 4.576 11.23 10.4 12.27v4.575h4.159v-4.367c5.823-1.04 10.398-6.24 10.398-12.27 0-6.032-4.575-11.23-10.398-12.27v-16.43c3.535.831 6.239 3.95 6.239 7.902zm-16.638 0c0-3.951 2.704-7.07 6.24-8.11V33.11c-3.536-.832-6.24-3.952-6.24-7.903zm16.638 20.797c0 3.952-2.704 7.071-6.24 8.111V38.103c3.536.832 6.24 3.951 6.24 7.903z"/>
    </g>
</svg>
