<svg xmlns="http://www.w3.org/2000/svg" width="82" height="82" viewBox="0 0 82 82">
    <g fill="none" fill-rule="nonzero" stroke-width="1.5">
        <path fill="#71CFEB" stroke="#71CFEB" d="M8.33 11.17c0 3.978 3.124 7.103 7.101 7.103 3.978 0 7.103-3.125 7.103-7.102 0-3.977-3.125-7.102-7.103-7.102-3.977 0-7.102 3.125-7.102 7.102zm11.363 0c0 2.416-1.847 4.262-4.262 4.262-2.414 0-4.261-1.846-4.261-4.261s1.847-4.261 4.261-4.261c2.415 0 4.262 1.846 4.262 4.26zM60.886 11.17c0 3.978 3.125 7.103 7.103 7.103 3.977 0 7.102-3.125 7.102-7.102 0-3.977-3.125-7.102-7.102-7.102-3.978 0-7.103 3.125-7.103 7.102zm11.364 0c0 2.416-1.847 4.262-4.261 4.262-2.415 0-4.262-1.846-4.262-4.261S65.574 6.91 67.99 6.91c2.414 0 4.261 1.846 4.261 4.26zM22.535 70.83c0-3.978-3.125-7.103-7.103-7.103-3.977 0-7.102 3.125-7.102 7.102 0 3.977 3.125 7.102 7.102 7.102 3.978 0 7.103-3.125 7.103-7.102zm-11.364 0c0-2.416 1.846-4.262 4.261-4.262s4.262 1.846 4.262 4.261-1.847 4.261-4.262 4.261c-2.415 0-4.261-1.846-4.261-4.26zM73.67 70.83c0-3.978-3.124-7.103-7.101-7.103-3.978 0-7.103 3.125-7.103 7.102 0 3.977 3.125 7.102 7.103 7.102 3.977 0 7.102-3.125 7.102-7.102zm-11.363 0c0-2.416 1.847-4.262 4.262-4.262 2.414 0 4.261 1.846 4.261 4.261s-1.847 4.261-4.261 4.261c-2.415 0-4.262-1.846-4.262-4.26z"/>
        <path fill="#143D6C" stroke="#143D6C" d="M72.25 32.477c-4.12 0-7.67 2.983-8.38 7.103H53.641c-.568-5.966-5.256-10.654-11.222-11.364V18.13c4.688-.852 7.813-5.113 6.96-9.8-.852-4.688-5.113-7.813-9.8-6.96-4.688.852-7.813 5.113-6.96 9.8.567 3.551 3.408 6.392 6.96 6.96v10.086c-5.966.71-10.654 5.398-11.222 11.222H18.272c-.852-4.688-5.113-7.813-9.8-6.96-4.688.852-7.813 5.113-6.96 9.8.851 4.688 5.113 7.813 9.8 6.96 3.551-.568 6.392-3.408 6.96-6.96h10.086c.71 5.966 5.397 10.654 11.221 11.222v10.228c-4.687.852-7.812 5.113-6.96 9.8.853 4.688 5.114 7.813 9.801 6.96 4.687-.852 7.813-5.113 6.96-9.8-.568-3.551-3.409-6.392-6.96-6.96V53.5c5.966-.71 10.654-5.397 11.222-11.222h10.227c.853 4.688 5.114 7.813 9.801 6.96 4.687-.852 7.813-5.113 6.96-9.8-.71-3.978-4.261-6.96-8.38-6.96zM35.318 9.75c0-3.125 2.557-5.682 5.682-5.682 3.125 0 5.682 2.557 5.682 5.682 0 3.125-2.557 5.682-5.682 5.682-3.125 0-5.682-2.557-5.682-5.682zM9.75 46.682c-3.125 0-5.682-2.557-5.682-5.682 0-3.125 2.557-5.682 5.682-5.682 3.125 0 5.682 2.557 5.682 5.682 0 3.125-2.557 5.682-5.682 5.682zM46.682 72.25c0 3.125-2.557 5.682-5.682 5.682-3.125 0-5.682-2.557-5.682-5.682 0-3.125 2.557-5.682 5.682-5.682 3.125 0 5.682 2.557 5.682 5.682zM41 50.943a9.882 9.882 0 0 1-9.944-9.944A9.882 9.882 0 0 1 41 31.055 9.882 9.882 0 0 1 50.944 41 9.882 9.882 0 0 1 41 50.943zm31.25-4.262c-3.125 0-5.682-2.556-5.682-5.681s2.557-5.682 5.682-5.682c3.125 0 5.682 2.557 5.682 5.682 0 3.125-2.557 5.681-5.682 5.681z"/>
    </g>
</svg>
