<svg xmlns="http://www.w3.org/2000/svg" width="79" height="80" viewBox="0 0 79 80">
    <g fill="none" fill-rule="nonzero" stroke-width="2.5">
        <path fill="#143D6C" stroke="#143D6C" d="M19.969 48.2a17.038 17.038 0 0 1-.64 6.225 3.728 3.728 0 0 0 5.255 4.4C28.288 57 33.2 53.744 36.2 48.759h2.441a23.6 23.6 0 0 0 0-47.2H24.92A23.585 23.585 0 0 0 5.385 11.943a23.592 23.592 0 0 0-2.334 22A23.583 23.583 0 0 0 19.969 48.2v.001zm4.95-42.6h13.744a19.597 19.597 0 0 1 16.975 9.8 19.59 19.59 0 0 1 0 19.6 19.597 19.597 0 0 1-16.975 9.8h-3.606a2.001 2.001 0 0 0-1.77 1c-2.318 4.416-6.59 7.39-9.968 9.175.753-2.872.9-5.869.434-8.8a2.002 2.002 0 0 0-1.69-1.678A19.59 19.59 0 0 1 7.41 33.157a19.581 19.581 0 0 1 1.356-18.48A19.58 19.58 0 0 1 24.92 5.6V5.6z"/>
        <path fill="#71CFEB" stroke="#71CFEB" d="M77.463 53.44a17.806 17.806 0 0 1-13.6 17.222 11.81 11.81 0 0 0 .481 3.938 3.26 3.26 0 0 1-1.028 3.434c-1 .835-2.403.994-3.563.406-2.697-1.368-6.256-3.703-8.537-7.296h-1.472a17.71 17.71 0 0 1-16.256-10.647 2.005 2.005 0 0 1 1.037-2.638 2.001 2.001 0 0 1 2.635 1.038 13.72 13.72 0 0 0 12.584 8.256h2.625a2 2 0 0 1 1.769 1.047 15.647 15.647 0 0 0 5.975 5.862 16.312 16.312 0 0 1-.056-5.4 1.999 1.999 0 0 1 1.687-1.678 13.719 13.719 0 0 0 9.69-6.375A13.71 13.71 0 0 0 64.8 40.663a1.993 1.993 0 0 1-.822-2.457A1.997 1.997 0 0 1 66.272 37a17.602 17.602 0 0 1 11.191 16.44zM21.584 24.297a2.002 2.002 0 0 1 2.729-.738c1.74 1 3.293 2.3 4.584 3.84a47.477 47.477 0 0 1 10.222-9.6 2.004 2.004 0 0 1 2.29 3.288A43.508 43.508 0 0 0 30.496 31.97a2.008 2.008 0 0 1-1.64.856h-.088a2.01 2.01 0 0 1-1.65-1 13.05 13.05 0 0 0-4.8-4.8 2.001 2.001 0 0 1-.734-2.728z"/>
    </g>
</svg>
