<svg xmlns="http://www.w3.org/2000/svg" width="75" height="80" viewBox="0 0 75 80">
    <g fill="none" fill-rule="nonzero" stroke-width="1.5">
        <path fill="#143D6C" stroke="#143D6C" d="M74.216 46.85a7.408 7.408 0 0 1-.567 3.15 6.75 6.75 0 0 1-.765 1.393c-.15.219-.315.427-.491.625-.166.183-.39.427-.492.518l-3.027 2.88L65 59.067a303.542 303.542 0 0 1-7.5 7.682l-3.798 3.76-.957.934c-.385.368-.775.716-1.192 1.042h-.003a14.814 14.814 0 0 1-8.74 3.157h-2.728l-2.666-.074-10.667-.293c-3.008-.075-5.984-.267-8.809-.61l.003.004a51.368 51.368 0 0 1-5.725 3.858c-1.309.742-2.367 1.058-2.276.09a4.734 4.734 0 0 1 1.126-2.174l4.766-4.775a2.517 2.517 0 0 1 1.742-.71c7.5 0 14.95-.075 22.409 0h2.666a10.756 10.756 0 0 0 6.243-2.324c.54-.426 1.283-1.143 1.95-1.751L52.96 65a249.879 249.879 0 0 1 4.167-3.633l9.85-10.201L68.2 49.89l.615-.642v.004c.127-.137.24-.28.342-.437a2.867 2.867 0 0 0 .179-2.936 2.884 2.884 0 0 0-2.503-1.553 2.85 2.85 0 0 0-1.768.557c-.088.062-.17.127-.247.202l-.059.049-.101.1-.199.193-3.19 3.05-6.448 6.009-.003-.003c-.944.914-2.002 1.699-3.151 2.334a6.89 6.89 0 0 1-5.69 5.342c-.4.058-.801.081-1.202.074h-.833l-1.742-.074a31.588 31.588 0 0 1-10.826-2.074c-.95-.4-1.582-.925-1.09-1.55v-.003c.403-.42.943-.683 1.526-.739 2.793.075 5.599.085 8.408.065h4.21-.004c.225.02.453.02.677 0 .166-.026.326-.071.482-.133.316-.12.599-.31.833-.55a2.503 2.503 0 0 0 .71-1.843 2.621 2.621 0 0 0-.892-1.839 2.744 2.744 0 0 0-.94-.55 3.214 3.214 0 0 0-.577-.133l-1.042-.085a90.45 90.45 0 0 1-4.166-.45c-6.166.167-12.334.427-18.51.476h-1.425c-.39-.006-.785.01-1.175.049a9.795 9.795 0 0 0-2.282.501 9.529 9.529 0 0 0-3.076 1.7l-1.075.956c-1.592 1.416-3.183 1.908-4.023 1.26-.843-.65-.127-2.324 1.224-3.883l.898-1.032c.362-.407.746-.788 1.153-1.143a12.649 12.649 0 0 1 5.966-2.91c.55-.104 1.107-.173 1.667-.208h1.491c3.659 0 7.324.048 10.993.15l3.466.143c2.334-.108 4.668-.15 6.999-.15h1.751c.625 0 1.026 0 2.019.065h-.004a7.175 7.175 0 0 1 4.476 2.366 6.9 6.9 0 0 1 1.267 2.061c.218-.257.442-.511.673-.768a351.287 351.287 0 0 1 5.726-6.133l2.917-3.024.732-.749c.092-.1.342-.325.518-.491.176-.166.417-.332.625-.492v-.003a7.602 7.602 0 0 1 2.933-1.214 7.456 7.456 0 0 1 8.766 7.09l.016-.043z"/>
        <path fill="#71CFEB" stroke="#71CFEB" d="M56.716 23.558l.143-.293.065-.143.108-.234.003.003c.143-.332.25-.684.316-1.042a5.049 5.049 0 0 0-3.135-5.69l-.492-.192-1.976-.768-2.939-1.117-.674-3.457-.475-2.366a4.893 4.893 0 0 0-5.833-3.691l-2.325.634-3.626.983-2.184-2.018-1.459-1.35-.748-.69a4.604 4.604 0 0 0-1.302-.834 4.67 4.67 0 0 0-4.099 0 4.514 4.514 0 0 0-.918.582 3.29 3.29 0 0 0-.4.368l-.3.316-.918.993-2.714 3.04-3.484-.582-1.19-.176-.577-.091-.293-.043-.358-.049h.003a5.392 5.392 0 0 0-3.994 1.15 5.392 5.392 0 0 0-1.999 3.642l-.182 2.442-.225 3.274-2.89 1.56-2.136 1.139A5.514 5.514 0 0 0 .957 22.22a5.507 5.507 0 0 0 .586 4.18l1.309 2.057 1.774 2.783-1.084 2.243-.834 1.75-.426.834-.049.108-.09.198a3.554 3.554 0 0 0-.16.417 5.506 5.506 0 0 0 2.874 6.761l3.717 1.533a6.92 6.92 0 0 0 2.97.374c1.09-.234.165-1.175-1.358-2.2a59.547 59.547 0 0 0-3.233-2.041c-.267-.166-.608-.342-.833-.492h-.003a2.494 2.494 0 0 1-.55-.56 2.204 2.204 0 0 1-.4-1.39c.012-.23.064-.455.149-.667.045-.1.098-.198.16-.293l.25-.426 1.084-1.843a135.796 135.796 0 0 0 2.116-3.815c.247-.449.247-.996 0-1.448l-.075-.124c-.677-1.152-1.35-2.344-2.093-3.493l-.925-1.601-.475-.785v.003a1.172 1.172 0 0 1-.14-.358c-.104-.449.085-.918.472-1.168l6.283-3.216h.003a2.01 2.01 0 0 0 1.084-1.615v-.091l.39-4.668.193-2.26a.701.701 0 0 1 .807-.592l2.233.332 4.642.674v.003a2.352 2.352 0 0 0 2.142-.833l3.001-3.59 1.449-1.735A.54.54 0 0 1 28.334 5a.57.57 0 0 1 .416.133l1.667 1.533 3.45 3.184.066.065a2.21 2.21 0 0 0 2.093.501l.934-.257 3.21-.749 1.601-.374.833-.192.192-.042h.118l-.007-.004c.176.013.335.101.436.244a.533.533 0 0 1 .082.225l.224 1.325.95 5.508a2.505 2.505 0 0 0 1.534 1.9l4.349 1.752 2.083.833v-.003a.418.418 0 0 1 .218.544l-.957 2.04-1.975 4.242v.085-.003a2.387 2.387 0 0 0 .182 2.327l3.268 4.915.625.935a.632.632 0 0 1 .098.315.767.767 0 0 1-.316.658c-3.333 1.982-5.993 4.066-5.176 4.941.368.4 1.26.443 2.5.16a15.483 15.483 0 0 0 2.126-.667c.394-.15.804-.32 1.224-.508l.65-.3.333-.16.176-.09.257-.15h.003a4.72 4.72 0 0 0 2.26-3.766 4.827 4.827 0 0 0-.427-2.26c-.085-.175-.182-.35-.267-.507l-.182-.31-.375-.624-2.477-4.066 1.826-3.633.557-1.143z"/>
        <path fill="#71CFEB" stroke="#71CFEB" d="M32.983 38.9a3.541 3.541 0 0 1-3.04 1.667 3.332 3.332 0 0 1-3.11-1.599c-.107-.166-.657-.267-.999-.267-.667 0-1.068.508-1.058 1.309a4.637 4.637 0 0 0 2.11 3.656c.706.488 1.51.817 2.356.96a7.11 7.11 0 0 0 2.624 0 7.412 7.412 0 0 0 6.21-7.334 6.768 6.768 0 0 0-1.008-3.65 7.892 7.892 0 0 0-2.591-2.5 12.25 12.25 0 0 0-2.894-1.285c-.466-.143-1-.267-1.4-.358-.4-.091-.716-.166-1.058-.267a9.969 9.969 0 0 1-1.849-.716 3.04 3.04 0 0 1-.934-1.107 2.24 2.24 0 0 1-.199-.918c-.013-.371.04-.745.156-1.1a2.975 2.975 0 0 1 1.309-1.615 4.918 4.918 0 0 1 2.393-.683c.846 0 1.67.247 2.376.716.397.283.827.52 1.283.71.462.211.996.211 1.458 0 .501-.277.804-.814.781-1.384a3.198 3.198 0 0 0-1.022-2.21 7.748 7.748 0 0 0-2.692-1.758 1.669 1.669 0 0 0-.143-.775c.048-.117.107-.225.143-.342a2.281 2.281 0 0 0-.25-2.158c-.15-.198-.733-.374-1.892-.358-1.159.016-1.833.16-1.96.368v-.003c-.25.328-.4.722-.433 1.136.088.586.238 1.158.443 1.715-1.23.17-2.399.632-3.408 1.351a7.781 7.781 0 0 0-1.667 1.667 7.658 7.658 0 0 0-1.051 2.132 7.908 7.908 0 0 0-.3 2.259c.013.804.166 1.598.45 2.35.299.752.735 1.446 1.282 2.041a8.18 8.18 0 0 0 1.745 1.374 12.94 12.94 0 0 0 3.672 1.41c.56.24.967.4 1.373.608h.004c.394.186.778.39 1.149.615a5.293 5.293 0 0 1 1.601 1.377c.27.4.407.876.391 1.358 0 .28-.033.56-.091.833-.052.267-.14.527-.26.775z"/>
    </g>
</svg>
