<svg xmlns="http://www.w3.org/2000/svg" width="52" height="88" viewBox="0 0 52 88">
    <g fill="none" fill-rule="nonzero">
        <path fill="#143D6C" stroke="#143D6C" stroke-width="1.2" d="M7.254 1h36.8c1.709.097 3.309.765 4.48 1.814a5.851 5.851 0 0 1 1.92 3.92v74.533a5.851 5.851 0 0 1-1.92 3.919c-1.175 1.053-2.775 1.72-4.48 1.814h-36.8c-1.708-.097-3.308-.765-4.479-1.814a5.851 5.851 0 0 1-1.92-3.92V6.734c.108-1.53.854-2.963 2.024-4.012C4.054 1.668 5.442 1.097 7.254 1zM3.946 6.83v6.212h43.412V6.83c-.108-1.623-1.708-3.057-3.52-3.057H7.461C5.545 3.77 3.945 5.203 3.945 6.83h.001zm0 8.981v54.564h43.412V15.811H3.945zm0 57.333v7.835c0 .956.424 1.911 1.278 2.486.642.478 1.6.765 2.455.765h36.157c1.813 0 3.413-1.433 3.521-3.057v-8.025c-14.504-.004-29.012-.004-43.412-.004z"/>
        <path fill="#143D6C" stroke="#143D6C" stroke-width="1.2" d="M20.054 8.254c.213-.108.321-.108.534-.108h10.241c.425 0 .959.32 1.067.854.213.642-.32 1.28-.958 1.28H20.592c-.533 0-.958-.426-1.067-.959-.325-.43-.004-.854.53-1.067z"/>
        <g fill="#71CFEB" stroke="#71CFEB" stroke-width="1.32">
            <path d="M13 25h27.22v28.747c-2.466 2.58-4.927 5.046-7.393 7.626H13V25zm2.228 2.227v31.8h14.786v-7.98h7.98v-23.82H15.228zm17.134 26.167v5.28c1.76-1.76 3.4-3.52 5.16-5.28h-5.16z"/>
            <path d="M18.747 30.627h15.96v2.228h-15.96zM18.747 35.207h15.96v2.227h-15.96zM18.747 39.667h15.96v2.227h-15.96zM18.747 44.24h15.96v2.228h-15.96zM18.747 48.814h7.98v2.227h-7.98zM18.747 53.393h7.98v2.228h-7.98z"/>
        </g>
        <path fill="#143D6C" stroke="#143D6C" stroke-width="1.2" d="M24.533 74.454a4.122 4.122 0 0 1 2.988.534c.854.533 1.6 1.387 1.92 2.346.322 1.066.322 2.241-.212 3.308-.425 1.067-1.387 1.812-2.454 2.242a4.486 4.486 0 0 1-3.52-.213c-.96-.533-1.813-1.492-2.134-2.558-.321-1.175-.213-2.454.425-3.521.746-1.18 1.812-1.925 2.987-2.138zm.213 2.134c-.746.212-1.388.854-1.6 1.708-.213.854.108 1.709.854 2.242a2.147 2.147 0 0 0 2.242.32c.746-.32 1.279-.958 1.387-1.708.109-.745-.108-1.6-.746-2.133-.429-.537-1.495-.642-2.137-.43z"/>
    </g>
</svg>
