<svg xmlns="http://www.w3.org/2000/svg" width="50" height="47" viewBox="0 0 50 47">
    <path fill="#F7C92B" fill-rule="nonzero" d="M48.214 16.342l-14.75-2.114-6.59-13.175A2.175 2.175 0 0 0 25.007 0c-.768 0-1.479.4-1.869 1.053l-6.6 13.175-14.751 2.114A2.076 2.076 0 0 0 .103 17.74a2.035 2.035 0 0 0 .524 2.107l10.676 10.26-2.518 14.492c-.134.771.187 1.55.829 2.01.641.46 1.492.52 2.193.156L25 39.924l13.192 6.84a2.107 2.107 0 0 0 2.194-.156c.641-.46.963-1.239.829-2.01l-2.519-14.491 10.676-10.261c.567-.546.77-1.362.526-2.105a2.076 2.076 0 0 0-1.68-1.399h-.004z"/>
</svg>
