<svg xmlns="http://www.w3.org/2000/svg" width="42" height="79" viewBox="0 0 42 79">
    <g fill="#71CFEB" fill-rule="evenodd">
        <path d="M18.318 5.482c5.414-.002 9.861 4.449 9.869 9.877.007 5.47-4.43 9.903-9.917 9.91-5.447.006-9.883-4.435-9.886-9.895-.003-5.468 4.437-9.889 9.934-9.892zM12.506 60.94v-5.468H6.4c-.006-.15-.02-.297-.02-.444 0-5.352.069-4.701.124-10.054.042-4.145 1.826-7.444 5.274-9.74 5.794-3.855 13.167-1.837 16.514 3.553h6.136c-1.483-4.006-4.425-7.122-8.718-9.357-.169-.087-.342-.17-.531-.265 6.983-3.458 9.894-11.481 7.845-18.191C31.04 4.473 25.191.07 18.448 0c-6.714-.07-12.72 4.22-14.782 10.578-1.034 3.19-1.054 6.4 0 9.582 1.337 4.034 3.96 6.996 7.714 8.982-.039.035-.056.06-.08.072-.113.056-.227.109-.34.163-1.867.883-3.538 2.044-4.974 3.53-3.194 3.311-4.932 7.258-4.962 11.868-.046 7.202-.123 8.4-.122 15.603v.56h11.604z"/>
        <path d="M20.34 63.245v10.69c0 .777.28 1.064 1.046 1.065h15.596c.753 0 1.043-.289 1.043-1.032V52.59c0-.79-.275-1.062-1.08-1.062H21.42c-.82 0-1.08.266-1.08 1.1v10.618zm2.373-15.456c0 .272-.006.482 0 .691.027.84.684 1.521 1.527 1.524 3.295.01 6.59.01 9.885 0 .844-.003 1.5-.683 1.528-1.523.006-.209 0-.418 0-.639.053-.018.094-.047.136-.047 1.04-.002 2.081-.032 3.12.009 1.38.054 2.367 1.128 2.375 2.535.008 1.59.002 3.178.002 4.768v21c-.002 1.371-.835 2.388-2.126 2.598a3.07 3.07 0 0 1-.489.027c-6.321.001-12.643.002-18.966 0-1.557 0-2.623-1.063-2.623-2.62-.003-8.565-.003-17.131-.001-25.696 0-1.545 1.042-2.605 2.585-2.625 1.003-.012 2.005-.002 3.047-.002z"/>
        <path d="M27.59 44.9h3.189c.06-.846-.678-1.577-1.572-1.586-.91-.01-1.657.71-1.618 1.587m-1.104.025c.31-1.734 1.283-2.652 2.746-2.634 1.415.016 2.407.981 2.647 2.611.113.008.235.02.357.022.49.003.981-.011 1.471.008.679.025 1.203.519 1.236 1.194.03.64.03 1.285-.002 1.926-.032.647-.527 1.12-1.173 1.184-.105.011-.21.011-.315.011h-8.548c-.967 0-1.479-.502-1.485-1.458-.004-.514-.01-1.028.002-1.541.02-.788.547-1.309 1.334-1.321.57-.01 1.141-.002 1.73-.002M29.95 66.05c-.302.57-.58 1.05-.817 1.551-.207.438-.522.608-1 .605-2.02-.012-4.041-.007-6.061-.004-.309.001-.627-.043-.755-.335a1.204 1.204 0 0 1-.059-.756c.091-.32.393-.428.729-.427 1.833.003 3.667-.009 5.501.011.32.002.473-.106.61-.38.419-.833.871-1.65 1.3-2.48.177-.344.423-.559.828-.517.393.04.576.303.683.655.379 1.251.766 2.5 1.151 3.748.036.118.08.234.141.416.223-.39.416-.706.59-1.033.18-.331.44-.487.82-.492.9-.008 1.799-.04 2.698-.055.538-.01.875.274.888.728.013.472-.319.775-.869.788-.688.015-1.377.038-2.066.038-.231 0-.354.087-.462.286-.353.645-.733 1.275-1.09 1.918-.181.328-.43.53-.814.484-.384-.047-.572-.304-.68-.661-.363-1.208-.74-2.41-1.111-3.615-.04-.13-.085-.258-.154-.472M28.791 53.966c1.54 0 3.081-.003 4.621.002.63.002 1.005.46.82.992-.12.351-.382.512-.75.512h-9.347c-.468-.002-.764-.209-.842-.578-.11-.516.233-.92.807-.926.969-.008 1.937-.002 2.906-.002h1.785zM26.308 56.771c.735 0 1.471-.003 2.207.001.533.003.865.296.866.752.001.453-.333.75-.865.751-1.46.004-2.92.004-4.38 0-.538 0-.86-.288-.86-.75 0-.468.315-.749.86-.753.723-.005 1.448-.001 2.172-.001"/>
    </g>
</svg>
