<svg xmlns="http://www.w3.org/2000/svg" width="76" height="76" viewBox="0 0 76 76">
    <g fill="none" fill-rule="nonzero">
        <path fill="#143D6C" d="M69.16 25.742l2.461-2.461v-.003a5.398 5.398 0 0 0 .537-6.977 5.403 5.403 0 0 0-6.798-1.656c-.324.157-.63.344-.911.564-.247.19-.481.398-.701.62l-2.485 2.494a31.375 31.375 0 0 0-12.015-4.726v-2.562A5.267 5.267 0 0 0 50.16.63a6.694 6.694 0 0 0-1.52-.12h-5.515l-4.305.084a5.106 5.106 0 0 0-4.833 6.703c.326.98.944 1.84 1.772 2.461a4.99 4.99 0 0 0 2.803 1.004h.37l.045 3.23h.003A29.835 29.835 0 0 0 18.824 27.36a1.606 1.606 0 0 0-.166.38c-2.93-.374-5.905.1-8.574 1.369a16.445 16.445 0 0 0-5.047 3.684 17.128 17.128 0 0 0-1.997 2.645 16.882 16.882 0 0 0-1.437 3.079 16.548 16.548 0 0 0 .911 12.958l-.662 2.28-.448 1.52-.069.244h.003a3.408 3.408 0 0 0-.053 1.52 3.44 3.44 0 0 0 4.24 2.69l.16-.045h.098l1.52-.448 2.28-.662a16.693 16.693 0 0 0 8.442 1.808 29.982 29.982 0 0 0 5.11 6.605 30.392 30.392 0 0 0 8.291 5.715c1.71.793 3.492 1.42 5.32 1.876.927.273 1.9.41 2.88.6s1.983.282 3.04.297c4.29.217 8.577-.445 12.6-1.945a31.157 31.157 0 0 0 18.726-20.217c.363-1.206.645-2.435.844-3.678l.296-1.877.107-1.909a29.098 29.098 0 0 0-.555-7.659 31.222 31.222 0 0 0-5.525-12.448h.001zM10.898 54.53a2.073 2.073 0 0 0-1.632-.214l-3.094.89-.424.123.121-.434.882-3.084h-.003a2.063 2.063 0 0 0-.205-1.651A12.78 12.78 0 0 1 5.32 39.763a12.919 12.919 0 0 1 6.3-7.493 13.114 13.114 0 0 1 4.34-1.407c3.765-.49 7.565.579 10.519 2.966.243.19.76 0 1.163-.419.404-.419.425-.76.235-1.027a21.316 21.316 0 0 1 7.312-5.457A19.758 19.758 0 0 1 46.74 25.43a18.924 18.924 0 0 1 6.172 2.12 19.748 19.748 0 0 1 5.32 4.301 19.338 19.338 0 0 1 4.735 13.087 19.14 19.14 0 0 1-1.451 6.985 19.408 19.408 0 0 1-3.854 5.89 19.778 19.778 0 0 1-11.765 5.929 20.213 20.213 0 0 1-11.447-2.007 21.27 21.27 0 0 1-6.632-5.275 16.4 16.4 0 0 0 4.112-5.32 15.872 15.872 0 0 0 1.054-10.777 14.882 14.882 0 0 0-4.195-7.158c-.267-.258-.814-.107-1.208.327-.395.433-.502.858-.327 1.086a14.02 14.02 0 0 1 2.874 6.362 13.3 13.3 0 0 1-1.369 8.565 12.918 12.918 0 0 1-7.532 6.223A12.788 12.788 0 0 1 10.9 54.53zm60.284-8.852l-.078 1.665-.243 1.642v-.003a24.708 24.708 0 0 1-.698 3.215 27.692 27.692 0 0 1-16.257 17.982A28.557 28.557 0 0 1 42.741 72.2c-.92 0-1.808-.121-2.699-.19-.89-.068-1.754-.243-2.6-.463h.003a27.746 27.746 0 0 1-4.825-1.52 28.86 28.86 0 0 1-7.774-4.88 29.546 29.546 0 0 1-4.516-5.107c.716-.136 1.42-.323 2.105-.56a15.697 15.697 0 0 0 3.672-1.72 21.158 21.158 0 0 0 6.9 6.59 22.452 22.452 0 0 0 13.24 3.04 23.263 23.263 0 0 0 7.547-2.03 22.988 22.988 0 0 0 11.573-12.026A22.972 22.972 0 0 0 54.72 24.116a22.64 22.64 0 0 0-20.832.092 21.043 21.043 0 0 0-7.532 6.739 14.837 14.837 0 0 0-5.516-2.782 30.261 30.261 0 0 1 3.04-3.396 29.469 29.469 0 0 1 4.483-3.488 28.384 28.384 0 0 1 12.428-4.302 1.581 1.581 0 0 0 1.419-1.52v-.045l.092-6.3v-.002a1.662 1.662 0 0 0-1.65-1.74H38.742h.003c-.318-.02-.62-.14-.867-.341a1.518 1.518 0 0 1-.507-1.72 1.516 1.516 0 0 1 1.457-1.053l4.293.038h4.4l.003-.003c.602-.014 1.205.003 1.808.054.303.08.57.255.76.502a1.37 1.37 0 0 1-.054 1.733 1.32 1.32 0 0 1-.804.44 1.79 1.79 0 0 1-.253 0h-1.748c-.526 0-1.03.207-1.404.576a1.975 1.975 0 0 0-.585 1.4v6.295a2.018 2.018 0 0 0 1.784 2.012 27.41 27.41 0 0 1 13.255 5.32 2.066 2.066 0 0 0 2.705-.18l3.717-3.709v-.003c.086-.092.18-.178.282-.258.062-.05.13-.092.204-.128a1.231 1.231 0 0 1 1.413 1.969l-3.74 3.746h.003a2.08 2.08 0 0 0-.107 2.812 27.365 27.365 0 0 1 5.92 12.136c.463 2.191.632 4.432.501 6.668z"/>
        <path fill="#71CFEB" d="M43.32 47.227a3.258 3.258 0 0 1-1.953-.935 4.205 4.205 0 0 1-1.01-1.642 2.685 2.685 0 0 0-1.125-.136c-.531 0-.941.098-.959.213a5.073 5.073 0 0 0 .632 3.284 5.96 5.96 0 0 0 3.655 2.796 6.342 6.342 0 0 0 5.38-1.012 6.495 6.495 0 0 0 1.703-8.701c1.992-.89 4.302-3.474 4.394-5.207a7.097 7.097 0 0 0-.76-.82 5.393 5.393 0 0 0-.724-.653c-1.755.092-4.355 2.44-5.228 4.438a6.323 6.323 0 0 0-4.78-.608 5.94 5.94 0 0 0-3.619 2.796 5.044 5.044 0 0 0-.614 3.275c0 .13.51.214 1.086.205.324.03.647-.015.95-.128a4.295 4.295 0 0 1 1.019-1.65 3.282 3.282 0 0 1 1.953-.942 2.85 2.85 0 0 1 2.158.662 2.678 2.678 0 0 1 0 4.118c-.6.505-1.38.74-2.158.647zM19.327 43.778c0 2.704-4.058 2.704-4.058 0 0-2.708 4.058-2.708 4.058 0M25.885 43.778c0 2.704-4.058 2.704-4.058 0 0-2.708 4.058-2.708 4.058 0M12.769 43.778c0 2.704-4.058 2.704-4.058 0 0-2.708 4.058-2.708 4.058 0"/>
    </g>
</svg>
