<svg xmlns="http://www.w3.org/2000/svg" width="61" height="76" viewBox="0 0 61 76">
    <g fill="none" fill-rule="nonzero">
        <path fill="#71CFEB" d="M28.064 32.911c.606 0 1.09-.485 1.09-1.09 0-.606-.484-1.09-1.09-1.09h-9.33a7.344 7.344 0 0 0-7.392 7.39v12.845L9.767 49.39c-.242-.242-.484-.363-.727-.363-.242 0-.606.121-.727.363-.242.243-.363.485-.363.727 0 .243.12.606.363.727l2.908 2.909c.364.363.849.484 1.333.484.485 0 .97-.242 1.333-.484l2.908-2.909c.243-.242.364-.484.364-.727 0-.242-.121-.605-.364-.727-.363-.363-1.09-.363-1.454 0l-1.575 1.576V38.243a5.172 5.172 0 0 1 5.21-5.21h9.089v-.122zM19.097 54.116c-.606 0-1.09.485-1.09 1.09 0 .606.484 1.09 1.09 1.09h9.33a7.344 7.344 0 0 0 7.392-7.39V36.06l1.575 1.576c.363.363 1.09.363 1.454 0 .242-.243.363-.485.363-.727 0-.243-.12-.606-.363-.727l-2.908-2.909c-.364-.363-.848-.484-1.333-.484s-.97.242-1.333.484l-2.908 2.909c-.243.242-.364.484-.364.727 0 .242.121.605.364.727.363.363 1.09.363 1.454 0l1.575-1.576v12.844a5.172 5.172 0 0 1-5.21 5.21h-9.088z"/>
        <path fill="#71CFEB" d="M25.64 50.481c1.575-.485 2.423-1.454 2.666-2.908.242-1.697-.243-3.03-1.575-3.757l-1.455-.727c-.242-.12-.605-.242-.848-.363-.121-.121-.363-.121-.485-.242-.484-.243-.848-.364-1.332-.727-.727-.485-.97-1.333-.606-2.303.242-.727.848-1.09 1.817-1.09.97 0 1.576.484 1.94 1.333.12.242.12.484.12.727v.12h2.424c0-.726-.121-1.453-.485-2.06-.606-.968-1.454-1.574-2.908-1.817l-.364-.12v-1.213h-1.211v1.09l-.727.243c-.485.121-.849.243-1.212.485-1.09.606-1.818 1.696-1.939 3.03-.121 1.211.485 2.423 1.454 3.15.485.363 1.09.606 1.697.97.242.12.484.241.848.363.121.12.242.12.363.242l.122.121c.363.121.727.364 1.09.606.727.485.97 1.454.727 2.302-.242.727-.848 1.212-1.818 1.212h-.605c-1.09-.121-1.818-.848-1.94-1.939v-.363h-2.423c-.12 2.06 1.09 3.393 3.878 4.12l.363.12v1.091h1.212v-1.09l.606-.121c.121-.364.364-.364.606-.485z"/>
        <path fill="#143D6C" d="M45.997 31.456c-1.212 0-2.302-.12-3.393-.363v32.11H4.556V9.523h25.568C31.336 6.01 33.638 2.98 36.546.92H6.495C4.8.92 3.102 1.283 1.77 2.616.68 3.828.194 5.525.194 7.342v61.556c0 .727.121 1.454.242 2.181.727 2.787 3.272 4.484 6.301 4.484 5.574 0 11.027-.121 16.601-.121h.363c5.574 0 11.027 0 16.601.12 3.15 0 5.574-1.696 6.301-4.483.242-.727.242-1.454.242-2.18V31.455h-.848zM18.49 3.586h10.058c.727 0 1.454.606 1.454 1.454s-.606 1.454-1.333 1.454H18.612c-.727 0-1.454-.606-1.454-1.454s.605-1.454 1.332-1.454zm5.211 68.947c-1.818 0-3.15-1.454-3.15-3.15a3 3 0 0 1 3.029-3.03h.242a3 3 0 0 1 3.03 3.03c-.122 1.696-1.455 3.15-3.151 3.15z"/>
        <path fill="#71CFEB" d="M45.997 29.034c-7.876 0-14.299-6.423-14.299-14.3 0-7.876 6.544-14.298 14.3-14.298 7.755 0 14.298 6.422 14.298 14.299 0 7.876-6.422 14.299-14.299 14.299zm0-25.69c-6.301 0-11.39 5.09-11.39 11.391 0 6.302 5.089 11.391 11.39 11.391s11.39-5.09 11.39-11.39c0-6.302-5.089-11.391-11.39-11.391z"/>
        <path fill="#71CFEB" d="M43.695 20.915l1.212-1.212c1.697-1.818 3.15-3.272 4.483-4.847.364-.485.849-.97 1.212-1.333l1.212-1.333c1.333-1.454 1.575-2.06 1.575-2.302 0-.121 0-.243-.485-.243h-.12c-.122 0-.243.122-.364.122h-.364c-.242.12-.606.363-.97.606-2.301 1.454-4.483 3.271-6.543 4.846l-.12.122c-.485.363-.849.727-1.334 1.09l-.727.485-.727-.606c-.606-.485-1.333-1.09-1.938-1.575-.364-.364-.849-.485-1.212-.727-.121 0-.243-.121-.364-.121-.242 0-.363.12-.484.242-.122.242-.122.485-.122.606 0 .242.122.484.243.848.606 1.575 1.575 3.15 2.908 5.09.363.605.97.848 1.575.848.606 0 1.09-.243 1.454-.606z"/>
    </g>
</svg>
