<svg xmlns="http://www.w3.org/2000/svg" width="42" height="42" viewBox="0 0 42 42">
    <g fill="none" fill-rule="nonzero" stroke-width=".75">
        <path fill="#71CFEB" stroke="#71CFEB" d="M4.665 6.085a3.517 3.517 0 0 0 3.55 3.552 3.517 3.517 0 0 0 3.552-3.552 3.517 3.517 0 0 0-3.551-3.55 3.517 3.517 0 0 0-3.551 3.55zm5.681 0c0 1.208-.923 2.131-2.13 2.131-1.208 0-2.131-.923-2.131-2.13 0-1.208.923-2.131 2.13-2.131 1.208 0 2.131.923 2.131 2.13zM30.943 6.085a3.517 3.517 0 0 0 3.551 3.552 3.517 3.517 0 0 0 3.551-3.552 3.517 3.517 0 0 0-3.55-3.55 3.517 3.517 0 0 0-3.552 3.55zm5.682 0c0 1.208-.923 2.131-2.13 2.131-1.208 0-2.131-.923-2.131-2.13 0-1.208.923-2.131 2.13-2.131 1.208 0 2.131.923 2.131 2.13zM11.767 35.915a3.517 3.517 0 0 0-3.55-3.552 3.517 3.517 0 0 0-3.552 3.552 3.517 3.517 0 0 0 3.551 3.55 3.517 3.517 0 0 0 3.551-3.55zm-5.682 0c0-1.208.924-2.131 2.131-2.131 1.208 0 2.13.923 2.13 2.13 0 1.208-.922 2.131-2.13 2.131-1.207 0-2.13-.923-2.13-2.13zM37.335 35.915a3.517 3.517 0 0 0-3.55-3.552 3.517 3.517 0 0 0-3.552 3.552 3.517 3.517 0 0 0 3.551 3.55 3.517 3.517 0 0 0 3.551-3.55zm-5.681 0c0-1.208.923-2.131 2.13-2.131 1.208 0 2.131.923 2.131 2.13 0 1.208-.923 2.131-2.13 2.131-1.208 0-2.131-.923-2.131-2.13z"/>
        <path fill="#143D6C" stroke="#143D6C" d="M36.625 16.739a4.263 4.263 0 0 0-4.19 3.55H27.32c-.284-2.982-2.628-5.326-5.61-5.681V9.565c2.343-.426 3.905-2.557 3.48-4.9-.427-2.344-2.558-3.906-4.901-3.48-2.344.426-3.907 2.556-3.48 4.9a4.223 4.223 0 0 0 3.48 3.48v5.043c-2.983.355-5.327 2.699-5.611 5.61H9.636c-.426-2.343-2.557-3.905-4.9-3.48-2.344.427-3.907 2.558-3.48 4.901.426 2.344 2.556 3.907 4.9 3.48a4.223 4.223 0 0 0 3.48-3.48h5.043c.355 2.983 2.699 5.327 5.61 5.611v5.114c-2.343.426-3.906 2.557-3.48 4.9.427 2.344 2.557 3.906 4.901 3.48 2.344-.426 3.906-2.556 3.48-4.9a4.223 4.223 0 0 0-3.48-3.48V27.25c2.983-.355 5.327-2.699 5.611-5.61h5.114c.426 2.343 2.556 3.905 4.9 3.48 2.344-.427 3.906-2.558 3.48-4.901-.355-1.989-2.13-3.48-4.19-3.48zM18.159 5.375A2.85 2.85 0 0 1 21 2.535a2.85 2.85 0 0 1 2.84 2.84A2.85 2.85 0 0 1 21 8.215a2.85 2.85 0 0 1-2.84-2.84zM5.375 23.841A2.85 2.85 0 0 1 2.535 21a2.85 2.85 0 0 1 2.84-2.84A2.85 2.85 0 0 1 8.215 21a2.85 2.85 0 0 1-2.84 2.84zm18.466 12.784A2.85 2.85 0 0 1 21 39.465a2.85 2.85 0 0 1-2.84-2.84 2.85 2.85 0 0 1 2.84-2.84 2.85 2.85 0 0 1 2.84 2.84zM21 25.971A4.941 4.941 0 0 1 16.028 21 4.941 4.941 0 0 1 21 16.028 4.941 4.941 0 0 1 25.972 21 4.941 4.941 0 0 1 21 25.97zm15.625-2.13A2.85 2.85 0 0 1 33.785 21a2.85 2.85 0 0 1 2.84-2.841 2.85 2.85 0 0 1 2.84 2.84 2.85 2.85 0 0 1-2.84 2.842z"/>
    </g>
</svg>
