<svg xmlns="http://www.w3.org/2000/svg" width="52" height="30" viewBox="0 0 52 30">
    <g fill="none" fill-rule="nonzero" stroke-width=".88">
        <path fill="#143D6C" stroke="#143D6C" d="M17.371 13.428c-.998-.332-2.08 0-2.579.832l-.415.5v-1.664c.083-.5.166-.915.332-1.331l3.41-7.487c.417-.832.25-1.747-.415-2.412-.5-.416-1.081-.583-1.664-.583-.665.083-1.164.333-1.58.832L9.385 8.52c-.499.583-.832 1.331-1.081 2.08L6.89 15.674H1.066v13.31h6.655v-1.663h.832c5.99 0 8.152-1.331 8.319-5.241 0-.25.083-.582.166-1.082l1.747-4.575c.25-.665.167-1.248-.083-1.83a2.059 2.059 0 0 0-1.331-1.165zM2.731 27.321v-9.983h3.327v9.983H2.73zm14.557-11.397L15.541 20.5c-.25.499-.332.998-.332 1.497-.084 2.246-.583 3.66-6.655 3.66h-.832v-6.572L9.968 11.1a4.223 4.223 0 0 1 .748-1.497l5.075-6.405c.083-.167.25-.167.333-.167.083 0 .166 0 .332.167.084.083.167.332.084.499l-3.411 7.486c-.25.749-.333 1.414-.416 1.997v6.572l3.494-4.41c.166-.249.499-.332.748-.249a.65.65 0 0 1 .333.333.53.53 0 0 1 0 .5zM45.073 15.674l-1.331-4.991a7.099 7.099 0 0 0-1.082-2.08l-5.074-6.405c-.416-.5-.998-.832-1.58-.832a1.973 1.973 0 0 0-1.665.582 2.322 2.322 0 0 0-.415 2.413l3.41 7.486c.25.5.333.915.333 1.331v1.664l-.333-.416c-.582-.832-1.664-1.248-2.662-.915a2.059 2.059 0 0 0-1.33 1.165c-.25.582-.334 1.247-.084 1.83l1.747 4.575c.083.333.166.666.166.998.167 3.91 2.33 5.241 8.319 5.241h.832v1.664h6.655v-13.31h-5.906zm-1.415 9.983c-6.072 0-6.572-1.498-6.655-3.66-.083-.5-.166-.999-.332-1.498l-1.747-4.575a.53.53 0 0 1 0-.5c0-.166.166-.25.333-.332h.166c.166 0 .416.166.582.332l3.328 4.326v-6.655c0-.499-.083-1.248-.416-1.913l-3.41-7.487c-.084-.166-.084-.333.082-.499.084-.166.25-.166.333-.166.083 0 .25 0 .333.166l5.324 6.322c.333.416.582.915.748 1.498l1.997 7.486v7.155h-.666zm5.657 1.663h-3.327v-9.982h3.327v9.982z"/>
        <path fill="#71CFEB" stroke="#71CFEB" d="M29.35 10.683h1.664c0-2.495-1.83-4.492-4.16-4.908V4.028h-1.663v1.747c-2.33.416-4.16 2.496-4.16 4.908 0 2.413 1.83 4.492 4.16 4.908v6.572c-1.414-.332-2.496-1.663-2.496-3.244h-1.663c0 2.496 1.83 4.492 4.159 4.908v1.83h1.664V23.91c2.329-.416 4.16-2.495 4.16-4.908 0-2.412-1.831-4.492-4.16-4.908V7.522a3.224 3.224 0 0 1 2.495 3.161zm-6.655 0c0-1.58 1.082-2.828 2.496-3.244v6.405a3.224 3.224 0 0 1-2.496-3.16zm6.655 8.319c0 1.58-1.081 2.828-2.495 3.244v-6.405a3.224 3.224 0 0 1 2.495 3.161z"/>
    </g>
</svg>
