<svg xmlns="http://www.w3.org/2000/svg" width="32" height="37" viewBox="0 0 32 37">
    <g fill="none" fill-rule="nonzero">
        <path fill="#000" stroke="#143D6C" stroke-width="1.5" d="M16.12 35.603a2.335 2.335 0 0 1-.788-.142c-2.205-.788-9.639-3.906-12.41-10.506-2.064-4.914-1.843-12.962-1.576-16.19 0-1.402 1.37-1.922 2-2.158C6.04 5.55 12.797 2.795 15.05 1.536a2.366 2.366 0 0 1 2.268 0c2.3 1.26 8.962 4 11.64 5.055a2.646 2.646 0 0 1 2.016 2.158c.189 3.229.409 11.277-1.654 16.19-2.772 6.6-10.159 9.703-12.348 10.506-.27.107-.56.16-.85.158h-.001zm0-32.776a.84.84 0 0 0-.378.095C13.348 4.229 6.67 6.952 3.867 8.119c-.835.315-1.008.535-1.024.787-.173 3.15-.394 10.884 1.575 15.498 2.52 6 9.45 8.883 11.482 9.624a.696.696 0 0 0 .504 0c2.047-.74 8.914-3.623 11.434-9.624 1.922-4.614 1.717-12.379 1.575-15.498 0-.252-.189-.457-1.008-.787C25.57 7 18.955 4.276 16.577 2.969a.84.84 0 0 0-.457-.142z"/>
        <path fill="#71CFEB" stroke="#71CFEB" d="M14.545 23.081a.803.803 0 0 1-.567-.315l-3.15-4.205a.786.786 0 0 1 .158-1.103.803.803 0 0 1 1.102.158l2.615 3.496 7.717-7.26a.783.783 0 0 1 .559-.232c.21 0 .411.082.559.232a.777.777 0 0 1 .232.551.777.777 0 0 1-.232.551l-8.41 7.875a.798.798 0 0 1-.583.252z"/>
    </g>
</svg>
