<svg xmlns="http://www.w3.org/2000/svg" width="56" height="37" viewBox="0 0 56 37">
    <g fill="none" fill-rule="nonzero">
        <path fill="#143D6C" d="M52.078 20.556L53.41 9.6c0-2.062-1.804-3.738-4.082-3.738H43.7c-2.235 0-4.082 1.676-4.082 3.738l1.332 10.957c-1.762.387-3.051 2.02-3.051 3.953v2.836h3.351v8.594c0 .473.387.86.86.86s.86-.387.86-.86v-8.594h6.445v8.594c0 .473.386.86.86.86.472 0 .858-.387.858-.86v-8.594h3.997V24.51c0-1.933-1.29-3.523-3.051-3.953zm1.332 5.07H39.66V24.51c0-1.289.989-2.32 2.192-2.32h9.367c1.203 0 2.191 1.031 2.191 2.32v1.118zM22.344 35.94c0 .472.386.859.86.859.472 0 .858-.387.858-.86v-8.594h6.446v8.594c0 .473.387.86.86.86.472 0 .859-.387.859-.86v-8.594h3.867V24.51c0-1.934-1.29-3.524-3.05-3.954L34.374 9.6c0-2.062-1.805-3.738-4.082-3.738h-5.586c-2.234 0-4.082 1.676-4.082 3.738l1.332 10.957c-1.761.43-3.05 2.02-3.05 3.954v2.835h3.437v8.594zm-1.719-10.313V24.51c0-1.29.988-2.32 2.191-2.32h9.367c1.204 0 2.192 1.03 2.192 2.32v1.117h-13.75z"/>
        <path fill="#57B0CC" d="M2.664 7.45c.602-.429 1.375-.901 2.45-1.46-1.032.215-1.891.73-2.45 1.46zM12.074 5.947a21.83 21.83 0 0 1 3.008 1.847c-.645-.988-1.719-1.676-3.008-1.847z"/>
        <path fill="#71CFEB" d="M11.773 3.283a3.138 3.138 0 0 1-6.273 0 3.138 3.138 0 0 1 6.273 0M3.566 36.025c0 .473.387.86.86.86.43 0 .773-.301.86-.731l-.13-.387-1.59-6.144v6.402zM7.648 35.982c.086 0 .13 0 .215-.043.473-.129.73-.601.602-1.031l-1.934-7.52-.43-1.718-.085-.43.816-1.16c.258-.387.172-.903-.215-1.203-.172-.086-.344-.172-.516-.172a.897.897 0 0 0-.687.343L4.34 24.552c-.13.215-.215.473-.13.688L6.79 35.337a.916.916 0 0 0 .86.645zM10.27 35.553l3.007-10.055a.91.91 0 0 0-.171-.816l-1.504-1.72a.83.83 0 0 0-.645-.3c-.215 0-.387.086-.558.215a.872.872 0 0 0-.086 1.203l1.16 1.332-.215.773-.344 1.16-2.32 7.692c-.13.472.129.945.558 1.074a.545.545 0 0 0 .258.043c.387 0 .73-.258.86-.602zM11.816 36.283a.84.84 0 0 0 .817.559c.472 0 .859-.387.859-.86v-5.199l-1.547 5.242c-.086.086-.129.172-.129.258zM4.941 13.896c-.043 0-.043 0 0 0-.214 1.075-.343 2.407-.43 3.953v1.504c0 .301 0 .645.044.989 0 .343.043.644.086.988v.043c0 .172.043.3.043.473.343-.086.644-.387.644-.774.258-.086.473-.129.73-.129.602 0 1.204.215 1.676.645.258.215.43.472.559.73h.387c.129-.258.3-.472.515-.644a2.486 2.486 0 0 1 1.676-.645c.387 0 .73.086 1.074.215.086.3.344.559.688.602.129-1.032.172-2.149.129-3.266v-.086a33.026 33.026 0 0 0-.473-4.598.892.892 0 0 0-.816.903l.386 5.758H5.33l.386-5.758c.043-.473-.3-.903-.774-.903z"/>
        <path fill="#71CFEB" d="M2.363 24.724h.172a.839.839 0 0 0 .688-.988c-1.117-5.887.215-12.074.644-12.848.172-.3 1.332-1.03 2.578-1.718l1.547 1.46c.172.172.387.215.602.215.215 0 .43-.086.601-.214l1.547-1.461c1.246.687 2.407 1.46 2.578 1.718.473.86 1.934 8.336.688 12.762a.86.86 0 0 0 .601 1.074c.086 0 .172.043.215.043.387 0 .73-.258.817-.644 1.375-4.899-.215-13.02-.903-14.094-.558-.945-2.879-2.148-3.824-2.664-.129-.043-.258-.086-.387-.086-.214 0-.43.086-.601.215L8.508 8.826 7.09 7.494c-.172-.172-.387-.215-.602-.215-.129 0-.257.043-.386.086-.946.473-3.266 1.719-3.825 2.664-.558 1.117-1.933 7.691-.773 14.008.086.43.43.687.86.687z"/>
        <path fill="#143D6C" d="M14.738 26.443l-.3.988h2.878v-2.707a2.596 2.596 0 0 1-2.449 1.762c0-.043-.043-.043-.129-.043zM9.54 25.884l-.13-.172H7.906l.43 1.719h.773zM2.75 26.4c-.129.043-.3.043-.43.043-.902 0-1.761-.473-2.191-1.246v2.191h2.879L2.75 26.4z"/>
    </g>
</svg>
