<svg xmlns="http://www.w3.org/2000/svg" width="37" height="40" viewBox="0 0 37 40">
    <g fill="none" fill-rule="nonzero">
        <path fill="#143D6C" stroke="#143D6C" stroke-width=".9" d="M28.225 35.11c-.36 1.215-1.485 2.115-2.79 2.115h-19.8A2.918 2.918 0 0 1 2.71 34.3V5.5a2.918 2.918 0 0 1 2.925-2.925h19.8A2.918 2.918 0 0 1 28.36 5.5v12.6c.225 0 .45-.046.675-.046.225 0 .45 0 .675.046V5.5c0-2.34-1.935-4.275-4.275-4.275h-19.8C3.295 1.225 1.36 3.16 1.36 5.5v28.8c0 2.34 1.936 4.275 4.275 4.275h19.8c2.071 0 3.825-1.485 4.186-3.42-.18 0-.405.045-.586.045-.27-.046-.54-.046-.81-.09z"/>
        <path fill="#71CFEB" d="M18.01 32.725c.36 0 .675.315.675.675 0 .36-.314.675-.675.675h-9a.692.692 0 0 1-.675-.675c0-.36.315-.675.675-.675h9z"/>
        <path fill="#143D6C" d="M13.96 8.335v4.05H9.91v3.15h4.05v4.05h3.15v-4.05h4.05v-3.15h-4.05v-4.05z"/>
        <path fill="#71CFEB" d="M7.21 22.825a.692.692 0 0 0-.675.675c0 .36.315.675.675.675.36 0 .675-.315.675-.675a.692.692 0 0 0-.675-.675zM7.21 29.44a.692.692 0 0 0-.675.675c0 .36.315.675.675.675.36 0 .675-.315.675-.675a.692.692 0 0 0-.675-.675zM7.21 32.725a.692.692 0 0 0-.675.675c0 .36.315.675.675.675.36 0 .675-.315.675-.675a.692.692 0 0 0-.675-.675zM7.21 26.11a.692.692 0 0 0-.675.675c0 .36.315.675.675.675.36 0 .675-.314.675-.675a.692.692 0 0 0-.675-.675zM21.835 34.075c.36 0 .675-.315.675-.675a.692.692 0 0 0-.675-.675.692.692 0 0 0-.675.675c0 .36.27.675.675.675zM19.36 33.4c0 .36.315.675.675.675.36 0 .675-.315.675-.675a.692.692 0 0 0-.675-.675.692.692 0 0 0-.675.675zM24.22 33.715c-.36-.225-.72-.54-1.034-.81-.136.135-.271.314-.271.539 0 .36.314.675.675.675.314-.044.54-.18.63-.404zM9.01 29.44a.692.692 0 0 0-.675.675c0 .36.315.675.675.675h12.555c-.225-.45-.45-.9-.586-1.35H9.01zM9.01 27.46h11.521c-.045-.27-.045-.585-.045-.854 0-.18 0-.315.045-.496H9.011a.692.692 0 0 0-.676.675c0 .36.27.675.675.675zM8.335 23.5c0 .36.315.675.675.675H20.8c.135-.45.315-.9.54-1.35H9.01a.662.662 0 0 0-.675.675z"/>
        <path fill="#57B0CC" d="M36.46 26.604a7.431 7.431 0 0 1-7.425 7.425 7.431 7.431 0 0 1-7.425-7.425 7.431 7.431 0 0 1 7.425-7.425c4.094 0 7.425 3.332 7.425 7.425z"/>
        <path fill="#FFF" d="M35.11 26.604c0-3.329-2.745-6.075-6.075-6.075-3.329 0-6.075 2.746-6.075 6.075 0 3.33 2.746 6.075 6.075 6.075 3.33 0 6.075-2.7 6.075-6.075z"/>
        <path fill="#57B0CC" d="M29.485 22.78a.549.549 0 0 0-.404-.18h-.135c-.18 0-.315.09-.45.18l-2.25 2.25c-.136.135-.18.314-.18.495 0 .18.046.36.18.496.27.27.675.27.946 0l1.079-1.08v5.13c0 .36.314.675.675.675.36 0 .675-.315.675-.675V24.85l1.08 1.08c.27.27.674.27.945 0a.652.652 0 0 0 0-.947l-2.16-2.204z"/>
    </g>
</svg>
