<svg xmlns="http://www.w3.org/2000/svg" xmlns:xlink="http://www.w3.org/1999/xlink" width="113" height="115" viewBox="0 0 113 115">
    <defs>
        <filter id="a" width="134.8%" height="134.2%" x="-17.4%" y="-17.1%" filterUnits="objectBoundingBox">
            <feOffset dy="4" in="SourceAlpha" result="shadowOffsetOuter1"/>
            <feGaussianBlur in="shadowOffsetOuter1" result="shadowBlurOuter1" stdDeviation="3"/>
            <feColorMatrix in="shadowBlurOuter1" result="shadowMatrixOuter1" values="0 0 0 0 0 0 0 0 0 0 0 0 0 0 0 0 0 0 0.105878497 0"/>
            <feMerge>
                <feMergeNode in="shadowMatrixOuter1"/>
                <feMergeNode in="SourceGraphic"/>
            </feMerge>
        </filter>
        <path id="b" d="M0 .188h112.71v112.579H0z"/>
        <path id="d" d="M.323.207H56.32v112.54H.323z"/>
    </defs>
    <g fill="none" fill-rule="evenodd" filter="url(#a)">
        <g transform="translate(0 1.152)">
            <mask id="c" fill="#fff">
                <use xlink:href="#b"/>
            </mask>
            <path fill="#72CEE9" d="M56.48.25c9.638 0 19.273-.075 28.908.045 2.855.035 5.763.352 8.545.986 9.813 2.237 16.996 10.228 18.199 20.196.402 3.339.527 6.726.538 10.091.05 17.189.062 34.376-.02 51.563-.016 3.356-.184 6.777-.846 10.054-2.161 10.705-10.543 18.091-21.488 19.146-3.107.298-6.243.404-9.367.41-16.72.04-33.44.024-50.159.016-3.849-.003-7.698-.06-11.48-.907C8.842 109.504 1.457 101.158.448 90.415a97.855 97.855 0 0 1-.41-8.916C0 64.563-.033 47.626.063 30.689c.02-3.748.189-7.57.94-11.226C3.138 9.063 11.36 1.84 22.09.671 25.336.32 28.62.245 31.887.221c8.198-.06 16.396-.02 24.594-.02v.048z" mask="url(#c)"/>
        </g>
        <g transform="translate(56.388 1.152)">
            <mask id="e" fill="#fff">
                <use xlink:href="#d"/>
            </mask>
            <path fill="#BBE4F0" d="M56.281 31.55c-.01-3.365-.135-6.754-.537-10.091-1.204-9.97-8.385-17.96-18.2-20.197C34.764.627 31.856.31 29 .275 19.442.157 9.882.228.323.229v112.519c8.08 0 16.158-.006 24.237-.026 3.125-.006 6.26-.112 9.369-.411 10.945-1.055 19.325-8.44 21.486-19.145.664-3.278.831-6.697.846-10.053.083-17.187.07-34.376.02-51.563" mask="url(#e)"/>
        </g>
        <path fill="#FEFEFE" d="M57.056 54.638l11.86-12.851c2.098-2.271-1.3-5.677-3.403-3.397l-11.86 12.85c-2.097 2.271 1.3 5.678 3.403 3.398M40.437 51.425L52.765 63.6c2.205 2.177 5.611-1.218 3.405-3.397L43.84 48.027c-2.204-2.177-5.61 1.22-3.403 3.398M38.112 78.087c.03 5.77.062 5.743.091 11.512.018 3.095 4.832 3.097 4.815 0-.03-5.77-.062-5.743-.091-11.512-.018-3.095-4.832-3.098-4.815 0"/>
        <path fill="#FEFEFE" d="M35.495 86.031c5.783-.03 4.7-.06 10.482-.091 3.1-.017 3.102-4.822 0-4.805-5.783.031-4.7.062-10.482.092-3.103.016-3.105 4.82 0 4.804M57.056 74.421c4.292-4.396 8.586-8.792 12.878-13.19 2.163-2.215-1.238-5.616-3.405-3.395-4.293 4.395-8.584 8.791-12.876 13.187-2.163 2.216 1.236 5.617 3.403 3.398"/>
        <path fill="#FEFEFE" d="M93.147 43.693C90.046 25.59 72.735 15.588 57.197 15.06a2.588 2.588 0 0 0-.232-.012l-.035.602-.125-.602a3.338 3.338 0 0 0-.432.03c-13.985.514-25.993 7.402-32.12 18.427-8.622 15.507-1.037 31.113 5.42 41.503.577.93 1.502 1.447 2.568 1.414 1.13-.035 2.236-.709 2.755-1.675.477-.887.426-1.88-.145-2.797-6.527-10.507-12.274-22.934-5.389-35.44 5.158-9.369 15.418-15.146 27.413-15.453 14.404.377 29.824 10.409 30.695 26.546.714 13.233-8.195 28.398-26.504 45.099-.448.287-1.058.58-1.493.4-.433-.18-.781-.834-1.004-1.893-.238-1.132-.223-2.265-.205-3.464l.088-21.866a3.054 3.054 0 0 0-.088-.74V33.494c0-3.833-6.019-3.837-6.019 0V71.86l-.044 1.909c-.124 5.264-.251 10.708.044 16.015.152 2.683.836 6.305 3.257 8.312 1.161.963 2.423 1.443 3.769 1.443 1.6-.001 3.317-.678 5.126-2.023.296-.145.535-.306.753-.503C79.86 83.698 96.564 63.64 93.147 43.693"/>
    </g>
</svg>
