<svg xmlns="http://www.w3.org/2000/svg" width="113" height="113" viewBox="0 0 113 113">
    <g fill="none" fill-rule="nonzero">
        <path fill="#85D4ED" d="M54.37 0H8.132A8.144 8.144 0 0 0 0 8.133v86.893a8.144 8.144 0 0 0 8.133 8.133H54.37a8.133 8.133 0 0 0 8.112-8.133V8.133A8.133 8.133 0 0 0 54.369 0zm4.822 95.026a4.845 4.845 0 0 1-4.834 4.845H8.133a4.845 4.845 0 0 1-4.845-4.845V8.133a4.845 4.845 0 0 1 4.845-4.845H54.37a4.845 4.845 0 0 1 4.823 4.845v86.893z"/>
        <path fill="#85D4ED" d="M25.212 9.547h12.54a1.644 1.644 0 0 0 0-3.288h-12.54a1.644 1.644 0 1 0 0 3.288zM39.275 93.239H23.7a1.644 1.644 0 1 0 0 3.288h15.576a1.644 1.644 0 1 0 0-3.288zM53.317 12.792H9.657c-.908 0-1.644.736-1.644 1.644v74.287c0 .908.736 1.644 1.644 1.644h43.66c.908 0 1.644-.736 1.644-1.644V14.436c0-.908-.736-1.644-1.644-1.644zM11.3 16.081h40.372v5.623H11.3V16.08zm0 70.997V24.992h40.372v62.086H11.3z"/>
        <path fill="#BAE4F0" d="M29.728 99.87H8.133a4.845 4.845 0 0 1-4.845-4.844V8.133a4.845 4.845 0 0 1 4.845-4.845h21.595V0H8.133A8.144 8.144 0 0 0 0 8.133v86.893a8.144 8.144 0 0 0 8.133 8.133h21.595v-3.288z"/>
        <path fill="#BAE4F0" d="M29.728 6.259h-4.516a1.644 1.644 0 1 0 0 3.288h4.505l.01-3.288zM29.728 93.239h-6.03a1.644 1.644 0 1 0 0 3.288h6.03V93.24zM29.728 87.078H11.3V24.992h18.427v-3.288H11.3V16.08h18.427v-3.289H9.658c-.909 0-1.645.736-1.645 1.644v74.287c0 .908.736 1.644 1.644 1.644h20.07v-3.289z"/>
        <path fill="#FFF" d="M52.177 111.26l-19.062-5.317V33.816l19.062 5.317zM52.177 111.26l19.073-5.317V33.816l-19.073 5.317z"/>
        <path fill="#85D4ED" d="M111.479 32.512a1.611 1.611 0 0 0-1.436-.274l-18.635 5.185-18.634-5.185h-.066a1.239 1.239 0 0 0-.197 0h-.362a1.239 1.239 0 0 0-.197 0h-.044l-18.635 5.185-18.635-5.185a1.611 1.611 0 0 0-1.435.274c-.409.31-.648.792-.647 1.304v72.127c.001.74.494 1.389 1.206 1.59l19.073 5.37c.145.017.292.017.438 0 .15.017.3.017.45 0l18.634-5.195 18.624 5.196c.145.016.293.016.438 0 .15.016.3.016.45 0l19.062-5.316c.712-.201 1.204-.85 1.206-1.59V33.816a1.633 1.633 0 0 0-.658-1.304zm-75.635 3.475l15.774 4.384v68.718l-15.774-4.384V35.987zm19.062 4.384l15.785-4.384v68.707l-15.785 4.384V40.371zm19.073-4.384l15.774 4.384v68.718l-15.774-4.384V35.987zm34.858 68.707l-15.785 4.384V40.382l15.785-4.384v68.696z"/>
        <path fill="#BAE4F0" d="M111.479 32.512a1.611 1.611 0 0 0-1.436-.274l-18.635 5.185-18.634-5.185h-.066a1.239 1.239 0 0 0-.197 0h-.362a1.239 1.239 0 0 0-.197 0h-.044l-1.009.274v75.547l1.447-.406 18.635 5.25c.145.017.293.017.438 0 .15.017.3.017.45 0l19.062-5.316c.712-.2 1.204-.85 1.206-1.589V33.816a1.633 1.633 0 0 0-.658-1.304zm-21.715 76.577l-15.774-4.384V35.987l15.774 4.384v68.718zm19.073-4.384l-15.785 4.384V40.382l15.785-4.384v68.707z"/>
        <path fill="#FFF" d="M62.722 75.711a43.846 43.846 0 0 1-9.197 10.26.406.406 0 0 1-.208.088.362.362 0 0 1-.197-.088 43.638 43.638 0 0 1-9.197-10.26c-1.798-2.85-3.705-6.193-3.705-9.723 0-6.576 5.875-11.98 13.154-12.057 7.278-.077 13.154 5.404 13.154 12.057-.1 3.53-2.017 6.873-3.804 9.723z"/>
        <path fill="#85D4ED" d="M53.558 53.646h-.636c-7.454.186-13.482 5.908-13.482 12.869 0 3.716 1.863 6.982 3.595 9.755a40.382 40.382 0 0 0 8.484 9.504c.407.34.9.56 1.425.636h.603a2.905 2.905 0 0 0 1.425-.636 40.328 40.328 0 0 0 8.506-9.504c1.743-2.773 3.596-6.04 3.596-9.755.033-6.983-6.018-12.716-13.516-12.87zm7.903 21.33a38.091 38.091 0 0 1-8.013 8.935.526.526 0 0 1-.175.076.647.647 0 0 1-.175-.076 38.037 38.037 0 0 1-8.002-8.934c-1.557-2.477-3.223-5.393-3.223-8.462 0-5.744 5.12-10.436 11.4-10.447 6.281-.01 11.4 4.703 11.4 10.447 0 3.069-1.655 5.985-3.212 8.462z"/>
        <path fill="#85D4ED" d="M53.591 60.343h-.625a6.577 6.577 0 1 0 .625 0zm3.979 6.906v.318a4.198 4.198 0 0 1-.822 1.984l-.208.241a2.927 2.927 0 0 1-.417.406l-.22.197c-.57.443-1.246.73-1.961.833h-.351a5.13 5.13 0 0 1-.581 0l-.395.022a4.11 4.11 0 0 1-1.973-.822l-.219-.274a4.823 4.823 0 0 1-.416-.406l-.187-.219a4.308 4.308 0 0 1-.844-1.984v-.34-.296-.614a4.187 4.187 0 0 1 .8-1.94l.23-.274c.132-.142.275-.285.406-.405l.395-.318a4.1 4.1 0 0 1 1.808-.669h1.261a4.21 4.21 0 0 1 2.028.888l.263.241c.156.136.3.287.427.45l.143.175c.42.558.692 1.215.79 1.907v.351c.005.095.005.19 0 .285.018.087.033.175.043.263z"/>
    </g>
</svg>
