<svg xmlns="http://www.w3.org/2000/svg" width="85" height="92" viewBox="0 0 85 92">
    <g fill="none" fill-rule="nonzero" transform="translate(-1)">
        <path fill="#85D4ED" d="M3.76 15.589h79.274c3.55 0 3.55-5.536 0-5.536H3.76c-3.54 0-3.55 5.536 0 5.536z"/>
        <ellipse cx="66.683" cy="11.935" fill="#FFF" rx="9.129" ry="9.167"/>
        <path fill="#58B1CB" d="M78.569 11.935a3.101 3.101 0 0 0-.077-.808C77.797 5.015 73.11 0 66.683 0 60.15.078 54.87 5.374 54.786 11.935c.062 6.362 5.04 11.58 11.368 11.913 6.615.277 11.577-4.794 12.304-11.072.074-.274.11-.557.11-.841zm-18.27 0c0-8.27 12.316-8.204 12.757 0-.441 8.204-12.757 8.27-12.757 0z"/>
        <path fill="#85D4ED" d="M3.76 83.645h79.274c3.55 0 3.55-5.536 0-5.536H3.76c-3.54 0-3.55 5.536 0 5.536z"/>
        <ellipse cx="66.683" cy="79.991" fill="#FFF" rx="9.129" ry="9.167"/>
        <path fill="#58B1CB" d="M78.569 79.991a3.101 3.101 0 0 0-.077-.808C77.797 73.07 73.11 68.11 66.683 68.11c-6.223.306-11.152 5.39-11.291 11.644-.14 6.254 4.559 11.553 10.762 12.138 6.615.277 11.577-4.783 12.304-11.072.073-.27.11-.55.11-.83zm-18.27 0c0-8.27 12.316-8.204 12.757 0-.441 8.204-12.757 8.281-12.757 0z"/>
        <path fill="#85D4ED" d="M83.034 43.179H3.76c-3.54 0-3.55 5.535 0 5.535h79.274c3.55 0 3.55-5.535 0-5.535z"/>
        <ellipse cx="20.122" cy="46.854" fill="#FFF" rx="9.129" ry="9.167"/>
        <path fill="#58B1CB" d="M20.618 34.941c-6.615-.276-11.588 4.783-12.305 11.072a2.835 2.835 0 0 0-.077.83c-.015.272.01.545.077.808.695 6.112 5.37 11.127 11.809 11.127a11.866 11.866 0 0 0 10.408-5.746 11.97 11.97 0 0 0 .248-11.924 11.87 11.87 0 0 0-10.16-6.178v.011zm-6.869 11.913c.441-8.204 12.746-8.281 12.746 0 0 8.282-12.305 8.204-12.746 0z"/>
        <path fill="#BAE4F0" d="M41.115 45.969a2.762 2.762 0 0 0-2.757-2.768H3.771c-3.55 0-3.562 5.535 0 5.535h34.587a2.762 2.762 0 0 0 2.757-2.767z"/>
        <ellipse cx="20.122" cy="46.854" fill="#FFF" rx="9.129" ry="9.167"/>
        <path fill="#BAE4F0" d="M20.497 34.93C13.88 34.731 9.03 39.77 8.368 46.002a2.835 2.835 0 0 0-.077.83c-.015.272.011.544.077.808.695 6.112 5.37 11.127 11.809 11.127 6.443-.066 11.66-5.276 11.762-11.746.102-6.47-4.95-11.842-11.387-12.113l-.055.022zm-6.748 11.924c.441-8.204 12.746-8.281 12.746 0 0 8.282-12.305 8.204-12.746 0z"/>
        <path fill="#ABD9E2" d="M45.69 12.843c0 .734.29 1.438.808 1.957a2.75 2.75 0 0 0 1.949.81h34.587c3.55 0 3.55-5.535 0-5.535H48.447a2.74 2.74 0 0 0-1.953.807 2.763 2.763 0 0 0-.804 1.96z"/>
        <ellipse cx="66.683" cy="11.957" fill="#FFF" rx="9.129" ry="9.167"/>
        <path fill="#BAE4F0" d="M66.308 23.87c6.616.2 11.467-4.838 12.128-11.071.06-.27.087-.544.078-.82.009-.275-.017-.55-.078-.819C77.796 5.037 73.122 0 66.683 0a11.957 11.957 0 0 0-9.442 4.769 12.063 12.063 0 0 0-2.003 10.421c1.445 4.985 5.904 8.481 11.07 8.68zm6.748-11.913c-.441 8.204-12.757 8.27-12.757 0s12.316-8.204 12.757 0zM45.69 80.877a2.762 2.762 0 0 0 2.757 2.768h34.587c3.55 0 3.55-5.536 0-5.536H48.447a2.762 2.762 0 0 0-2.757 2.768z"/>
        <ellipse cx="66.683" cy="79.991" fill="#FFF" rx="9.129" ry="9.167"/>
        <path fill="#BAE4F0" d="M66.308 91.893c6.616.2 11.467-4.838 12.128-11.072.061-.272.087-.551.078-.83a3.101 3.101 0 0 0-.078-.808c-.694-6.112-5.37-11.072-11.808-11.072-6.157.444-10.95 5.546-11.034 11.744-.084 6.197 4.572 11.428 10.714 12.038zm6.748-11.924c-.441 8.204-12.757 8.281-12.757 0s12.316-8.182 12.757.022v-.022z"/>
    </g>
</svg>
