<svg xmlns="http://www.w3.org/2000/svg" width="93" height="105" viewBox="0 0 93 105">
    <g fill="none" fill-rule="nonzero">
        <path fill="#85D4ED" d="M74.743 52.235l-7.971 10.92-2.558-2.83c-2.624-2.851-7.506.774-4.849 3.67l5.281 5.77a3.08 3.08 0 0 0 4.816 0l10.086-13.817c2.27-3.105-2.49-6.874-4.805-3.713z"/>
        <path fill="#85D4ED" d="M88.173 19.243l-.233 1.635.233-1.635c-.255 0-26.062-3.836-38.562-17.685A4.72 4.72 0 0 0 46.29.011h-.178a4.687 4.687 0 0 0-3.32 1.404c-.211.154-17.328 17.209-37.876 16.324h-.222a4.591 4.591 0 0 0-4.639 4.366A116.264 116.264 0 0 0 4.163 55.43C9.798 75.777 20.913 90.93 36.27 99.253l.653.342 6.643 4.421c.522.346 1.134.53 1.76.53.581 0 1.151-.156 1.65-.452l10.12-6.068a59.926 59.926 0 0 0 8.292-6.024 3.212 3.212 0 0 0 .279-4.505 3.226 3.226 0 0 0-4.508-.347 48.654 48.654 0 0 1-15.655 9.295C28.398 89.814 16.23 75.047 10.33 53.76a111.453 111.453 0 0 1-3.886-29.555c19.408 0 35.107-12.953 39.591-17.065 12.378 12.49 33.347 17.076 39.669 18.204-.122 3.912-.41 7.737-.841 11.461a3.192 3.192 0 0 0 1.284 2.984 3.17 3.17 0 0 0 3.177.387 3.195 3.195 0 0 0 1.927-2.597c.52-4.421.841-9.03.93-13.727a4.6 4.6 0 0 0-4.008-4.61z"/>
        <path fill="#58B1CB" d="M41.02 21.94a3.07 3.07 0 0 0-4.285-.63c-4.008 2.95-10.252 6.476-17.316 6.476a4.964 4.964 0 0 0-3.454 1.393 4.837 4.837 0 0 0-1.517 3.482 75.726 75.726 0 0 0 3.61 21.63 51.46 51.46 0 0 0 10.728 19.143A3.036 3.036 0 0 0 31 74.439a3.125 3.125 0 0 0 2.07-.795 3.08 3.08 0 0 0 .2-4.322 45.825 45.825 0 0 1-9.433-16.921 70.022 70.022 0 0 1-3.322-18.514c8.204-.342 15.235-4.31 19.774-7.67a3.05 3.05 0 0 0 .73-4.278z"/>
        <path fill="#85D4ED" d="M70.26 40.386c-9.754-.026-18.169 6.828-20.1 16.372-1.932 9.544 3.157 19.121 12.156 22.877 8.999 3.756 19.402.644 24.85-7.433a20.388 20.388 0 0 0-2.447-25.78 20.334 20.334 0 0 0-14.47-6.036h.01zm-9.589 32.96l-.786-.686a14.005 14.005 0 0 1-1.516-1.514l-.598-.663A15.659 15.659 0 0 1 54.593 63l-.077-1.105v-1.106-2.077a15.526 15.526 0 0 1 3.055-7.361l.787-.907c.469-.536.975-1.039 1.516-1.503l.731-.663a15.603 15.603 0 0 1 7.396-3.106l1.173-.077a13.796 13.796 0 0 1 2.137 0h.974a15.58 15.58 0 0 1 7.75 3.25l.875.795c.556.53 1.073 1.1 1.55 1.702l.487.553a15.603 15.603 0 0 1 2.967 7.184l.078 1.105V62.878a15.537 15.537 0 0 1-3.09 7.483l-.708.818c-.469.536-.976 1.039-1.517 1.503l-.675.608a15.746 15.746 0 0 1-7.495 3.172l-1.107.066a13.93 13.93 0 0 1-2.148 0h-.941a15.614 15.614 0 0 1-7.64-3.183z"/>
        <path fill="#BAE4F0" d="M45.293 96.29c-16.972-6.631-29.051-21.397-34.93-42.574a111.454 111.454 0 0 1-3.92-29.51c18.457 0 33.536-11.705 38.84-16.392V.077a4.675 4.675 0 0 0-2.547 1.327c-.155.165-17.272 17.22-37.82 16.335h-.222a4.591 4.591 0 0 0-4.639 4.366A116.264 116.264 0 0 0 4.163 55.43C9.798 75.777 20.913 90.93 36.27 99.253l.653.342 6.643 4.421a3.148 3.148 0 0 0 1.694.52l.033-8.245z"/>
        <path fill="#BAE4F0" d="M41.02 21.94a3.07 3.07 0 0 0-4.285-.63c-4.008 2.95-10.252 6.476-17.316 6.476a4.964 4.964 0 0 0-3.454 1.393 4.837 4.837 0 0 0-1.517 3.482 75.726 75.726 0 0 0 3.61 21.63 51.46 51.46 0 0 0 10.728 19.143A3.036 3.036 0 0 0 31 74.439a3.125 3.125 0 0 0 2.07-.795 3.08 3.08 0 0 0 .2-4.322 45.825 45.825 0 0 1-9.433-16.921 70.022 70.022 0 0 1-3.322-18.514c8.204-.342 15.235-4.31 19.774-7.67a3.05 3.05 0 0 0 .73-4.278z"/>
    </g>
</svg>
